<svg xmlns="http://www.w3.org/2000/svg" viewBox="0 0 512 512"><path d="M256 0c141.38 0 256 114.61 256 256 0 141.38-114.62 256-256 256C114.61 512 0 397.38 0 256 0 114.61 114.61 0 256 0z" fill="#8fc9f7"/><path d="M24.03 364.39h463.94C447.16 451.59 358.64 512 256 512S64.84 451.58 24.03 364.39z" fill="#add37f"/><path d="M276.98 364.39l46.93 138.48A256.26 256.26 0 01256 512c-24.88 0-48.93-3.57-71.67-10.19L228.3 364.4h48.67z" fill="#f7a724"/><path d="M237.27 364.39h30.7l47.66 140.6c-19.14 4.58-39.1 7.01-59.63 7.01-21.9 0-43.15-2.76-63.44-7.93l44.7-139.68z" fill="#f9bf2c"/><path d="M65.3 213.09c-.78 1.72-1.4 13.42-1.74 16.07l-1.45 16.99c-2.5 0-2.58.2-4.45.63l1.83 14.07c.16 2.82-.49 1.99-.56 5 3.05-.72.99-.43 1.9 0-.7 3.02-.49 5.76-1 9.17-.4 2.78-.68 7.6-.86 9.94l-1.31 20.3c-1.97.18-1.2 0-2.54.64v3.63l44.23-3.5c14.58-1.33 29.85-2.23 44.78-2.96 27.71-1.35 52.98-2.85 80.72-3.3 6.7-.1 5.47.06 10.33 1.87l.13 7.91c-.13-.1-.39-.5-.49-.35-.1.14-.39-.26-.51-.34l-.92-.65c-.73-.5-.93-.82-1.96-1.15-3.12-.98-82.23 2.42-85.48 2.58-15.3.74-29.97 2.04-45.08 2.9-14.74.83-29.63 2.62-44.48 2.9-1.25 1.2-.76.4-1.36 2.48-.17.6-.46 2.11-.55 2.85l43.85-3.56a1709.9 1709.9 0 0145.14-3.04c15.54-.78 30.86-1.49 46.42-2.2 7.44-.34 15.46-.45 23.1-.85 3.95-.21 7.9-.2 11.86-.27 6.57-.12 5.3-.17 10.2 1.92l.28 7.71c-4.4-4.25-12.7-2.66-21.3-2.36l-69.29 2.47c-10.4.5-84.47 5-88.87 6.29-.82 11-3.3 34.47-3.3 44.5 2.55.22 3.14.64 6.58.64.72-7.52.45-31.69 2.8-37.68.92-2.34.84-2.45 3.34-2.75 4.57 2.6 2.88 12.8 2.82 18.33-.1 7.56-.76 15.19-.76 22.73 1.88.32 2.38.64 4.6.64.48-8.01.93-15.98 1.17-23.97.17-5.76-.1-18.79 6.18-19.43 7.6-.78 5.54 13.89 5.46 19.67-.1 8.15-.66 16.31-.74 24.37 1.6 1.03 3.5.63 6.04.63.16-8.89.42-17.74.72-26.7.25-7.45-.13-19.05 8.2-18.9 8 .16 6.88 12.9 6.68 19.5-.27 9.22-.6 18.22-.75 27.37l8.6.63c.29-7.71-.68-38.44 2.52-43.99a11.64 11.64 0 019.71-5.98c11.4-.47 11.75 9.81 11.55 19.46-.23 10.59-.48 21.2-.65 31.79 2.52.43 3 .67 6.2.64 2.22-.01 4.66-.43 5.84.63 2.14-17.64-2.9-39.6 2.97-48.4 1.94-2.9 5.96-5.6 11.54-5.56 12.22.09 13.04 9.93 13.04 20.9 0 11.44-.08 22.9.01 34.33h11.86v-36.24c0-6.26-.79-9.91 3.06-14.6 2.58-3.14 6.5-5.73 12.7-5.68 13.4.09 14.08 9.95 14.07 22.2 0 8.96 1.06 28.51-.28 36.23 8.29 0 14.65.45 21.24.63h7.88l3.5-.77c-2.13-2.82-7.09-25.5-8.37-30.86-7.6-31.96 21.06-29.26 27.99-23.57 4 3.29 6.01 7.04 5.97 13.87-.07 13.32-.12 26.75.02 40.06h15.57c.4-11.45.07-23.45.07-34.96 0-5.36-.7-11.5 2.13-15.74 5.49-8.25 17.75-7.27 23.67-.45 3.71 4.27 3.12 8.76 3.12 14.92 0 9.13 1.03 27.57-.27 35.6 3.16-1.48 9.85-.64 14.14-.64.48-10.7.08-22.26.08-33.06 0-10.94.3-20.9 12.5-20.93 12.22-.03 13.92 9.39 13.9 19.03-.02 11.22-.06 22.47.02 33.69 3.88-.3 7.06-.64 11.9-.64.07-10.06-.37-20.43-.59-30.51-.2-9.48-.26-20.1 10.39-20.19 17.19-.13 10.77 25.67 12.64 48.8 3.36 0 6.72.36 9.13-.64.28-8.14-.34-17.88-.61-26.06-.14-4.07-.66-9.13.18-13.05.74-3.39 2.8-6.78 6.56-6.58 3.27.18 5.7 3.51 6.64 6.68 1.23 4.1 1.37 32.52 1.65 38.38 2.44-.56 2.58-.64 5.79-.64.32-6.68-.35-15.45-.64-22.25-.35-8.72-1.94-13.75 2.98-20.22 13.64-1.3 5.18 30.57 9.7 41.34l4.15-.14c-.23-7.08-.39-13.97-.66-20.98-.2-5.36-1.97-16.35 2.46-18.71 5.44.9 4.88 11.31 5.06 16.75.22 7.11.62 14.48.92 21.67 4.67 0 6.79-.64 10.96-.64 0-6.33-1.39-11.89-1.9-17.82-1.31-15.5-4.43-37.23-6.31-53.44L442.89 229l-20.59-5.48a435.64 435.64 0 00-21.94-4.76c-20.88-4.13-37.65-5.71-58.19-8.56l-30.23-2.82c-2.5-.13-4.22.1-6.73-.27-6.07-.92-43.86-1.64-51.98-1.64.63 2.55.6 5.96.53 9.11 8.85-.52 19 2.08 19.3 11.2.33 10.14-.09 20.46.25 30.64l-30.68-.43-.34-15.84-15.27-.2c.53-10.7-.73-23.9.7-33.84-9.87 0-50.35 2.3-59.09 3.54-2.31.33-6.81.87-8.62.9l-6.54-15.73c-.72-1.42-.52-1.15-1.09-1.43-9.15-3.74-12.44-4.17-23.16-1.22-6.6 1.81-15.53 4.4-21.8 6.07-13.29 3.52-29.4 9.56-42.13 14.86z" fill="#fbd734"/><path d="M65.3 213.09c-.78 1.72-1.4 13.42-1.74 16.07l-1.45 16.99c-2.5 0-2.58.2-4.45.63l1.83 14.07c.16 2.82-.49 1.99-.56 5 3.05-.72.99-.43 1.9 0-.7 3.02-.49 5.76-1 9.17-.4 2.78-.68 7.6-.86 9.94l-1.31 20.3c-1.97.18-1.2 0-2.54.64v3.63l44.23-3.5c14.58-1.33 29.85-2.23 44.78-2.96 27.71-1.35 52.98-2.85 80.72-3.3 6.7-.1 5.47.06 10.33 1.87l-11.62-6.34-14.6.27-9.82-28.9-39.13-56.12-6.53-15.74c-.73-1.41-.53-1.14-1.1-1.42 0-3.3.26-6.77-.17-10-.26-1.94-.92-6.3-1.1-8.44-2.8-.23-9.01-2.82-11.56-3-2.24-.15-1.52.4-4.33.46-1.35-5.78-4.13-12.71-6.12-18.67L124.75 140c-.43-6.86-2.06-10.17-5.06-10.82h-2.5c-2.21.38-4.95 1.65-8.24 3.61-10.9 6.54-22.76 16.01-31.1 25.48-1.3 1.47-1.42 2-2.87 3.5-4.99 5.14-4.84 11.92-5.83 18.96-.26 1.87-2.08 13.45-3.34 15.73l-.72 1.72c0 .06-.17 2.2-.2 2.43-.43 3.8.4 7.79.4 12.48zm23.15-35.9c.26-5.33-.2-15.36-6.97-13.2-5.23 1.66-4.28 10.22-4.4 15.52l-.13 17.36c3.5-.3 8.87-1.1 11.53-2.6l-.03-17.08zm7.03-2.28l-.34 18.52 14.42-2.41.3-19.02c.05-3.54.66-7.5-.72-10.76-2.57-6.03-11.34-5.66-13.27 2.63-.76 3.3-.24 7.55-.39 11.04zM235.25 309.5c-.14-.15-.34-.43-.43-.3-.1.14-.39-.26-.51-.34l-.92-.65c-.73-.5-.93-.82-1.96-1.15-3.12-.98-82.23 2.42-85.48 2.58-15.3.74-29.97 2.04-45.08 2.9-14.74.83-29.63 2.62-44.48 2.9-1.25 1.2-.76.4-1.36 2.48-.17.6-.46 2.11-.55 2.85l43.85-3.57a1709.9 1709.9 0 0145.14-3.03c15.54-.78 30.86-1.49 46.42-2.2 7.44-.34 15.46-.45 23.1-.85 3.95-.21 7.9-.2 11.86-.27 6.57-.12 5.3-.17 10.2 1.92l.28 7.7 5.57 25.19v.01c.21 1.72.54 3.55 1 5.53.8 3.3 3 13.24 5.06 21.01 1.4 5.42 2.66 9.58 3.31 9.85l-3.5.77h-7.88c-6.58-.2-12.95-.64-21.24-.64 1.34-7.71.29-27.27.29-36.23 0-12.25-.67-22.1-14.07-22.2-6.2-.05-10.12 2.54-12.7 5.68-3.85 4.69-3.07 8.35-3.06 14.6 0 12.09-.02 24.16 0 36.24h-11.86c-.1-11.43-.02-22.89-.02-34.32 0-10.98-.82-20.82-13.03-20.9-5.59-.05-9.6 2.65-11.54 5.55-5.88 8.8-.83 30.76-2.98 48.4-1.17-1.06-3.61-.64-5.84-.62-3.2.03-3.68-.22-6.2-.65.17-10.59.42-21.2.65-31.78.2-9.66-.15-19.94-11.54-19.47-4.77.2-8 3.02-9.72 5.99-3.2 5.54-2.23 36.27-2.52 43.99l-8.6-.63c.16-9.16.49-18.16.76-27.37.2-6.61 1.32-19.35-6.69-19.5-8.33-.16-7.95 11.44-8.2 18.9-.3 8.95-.55 17.8-.72 26.7-2.54 0-4.44.4-6.04-.64.08-8.06.64-16.22.75-24.36.07-5.79 2.14-20.46-5.47-19.68-6.28.64-6.01 13.68-6.18 19.44-.23 7.98-.68 15.95-1.17 23.96-2.21 0-2.72-.31-4.6-.63 0-7.55.67-15.17.76-22.73.07-5.53 1.76-15.74-2.82-18.34-2.5.3-2.41.41-3.34 2.75-2.35 6-2.08 30.16-2.8 37.68-3.44 0-4.03-.42-6.57-.63 0-10.04 2.47-33.51 3.3-44.5 4.39-1.3 78.46-5.8 88.87-6.3l69.28-2.46c8.6-.3 16.9-1.9 21.3 2.35l-.08-10.98z" fill="#ffed58"/><path d="M152.38 193.38c0-3.3.26-6.76-.17-10-.26-1.93-.92-6.3-1.1-8.43-2.8-.24-9.01-2.83-11.56-3-2.24-.16-1.52.4-4.33.46-1.35-5.78-4.13-12.72-6.12-18.68L124.75 140c-.43-6.85-2.06-10.17-5.06-10.8h-2.5c-.58.1-1.2.25-1.85.47l2.76 16.78 2.65 3.99s-1.33 5.31 0 7.97c1.33 2.65 6.64 15.93 6.64 15.93l3.99 5.31s11.95-1.32 13.28 1.34c1.33 2.65.29 9.83.29 9.83l10.34 24.7 33.2 49.14s7.97 22.58 9.3 27.89c1.32 5.32 11.17 3.03 11.17 3.03l-9.82-28.9-39.13-56.12-6.53-15.74c-.73-1.42-.52-1.15-1.1-1.43z" fill="#f9bf2c"/><g fill="#f7a724"><path d="M55.12 309.53c-1.44 1.34-1.46 1.65-1.63 4.42-.17 2.8.45 1.7 2.9 1.48 14.85-.28 29.74-2.06 44.48-2.9 15.1-.86 29.78-2.15 45.08-2.9 3.25-.15 82.36-3.56 85.48-2.57 1.03.33 1.23.65 1.96 1.15.16.11.78.56.92.64.13.1.42.5.51.35.1-.15.36.24.49.35l-.13-7.91c-4.86-1.81-3.64-1.98-10.33-1.87-27.74.45-53 1.95-80.72 3.3-14.93.72-30.2 1.63-44.78 2.96l-44.23 3.5zM54.48 320.77c-.81 1.8-.89 4.48-1.27 6.11h2.67c4.39-1.28 78.45-5.8 88.87-6.29l69.27-2.47c8.61-.3 16.9-1.89 21.32 2.36l-.29-7.7c-4.9-2.1-3.62-2.05-10.2-1.93-3.95.07-7.91.06-11.86.27-7.64.4-15.66.5-23.1.85-15.56.71-30.87 1.42-46.42 2.2a1709.9 1709.9 0 00-45.14 3.03l-43.84 3.57z"/></g><path d="M291.46 381.55c10.1 0 18.31-.63 28.72-.63 1.3-8.02.26-26.47.26-35.6.01-6.16.6-10.64-3.11-14.92-5.92-6.82-18.19-7.8-23.67.45-2.83 4.24-2.14 10.38-2.14 15.74 0 11.51.33 23.5-.06 34.96zM73.3 226.28c.32-4.78.72-9.93-3.57-11.7-4.47 2.07-4.06 8.24-4.2 13.22l-.63 17.43 7.98-1.76.42-17.19zm15.14-3.58c.26-5.33-.2-15.35-6.97-13.2-5.23 1.66-4.28 10.22-4.4 15.52l-.13 17.36c3.5-.3 8.87-1.1 11.53-2.59l-.03-17.1zm7.03-2.27l-.34 18.51 14.42-2.41.3-19.01c.05-3.55.66-7.51-.72-10.77-2.57-6.03-11.34-5.65-13.27 2.63-.76 3.3-.24 7.55-.39 11.05zm21.77-4.72l-.35 19c1.67.73 3.82.3 5.63.07l16.98-2 .6-19.85c.77-10.22.24-19.51-11.76-18.14-9.96 1.15-11.66 10.64-11.1 20.92zm-1.77 84.41l22.35-1.66c1.01-6.3.62-18.7.8-25.62.22-8.32-3.83-14.6-12.33-14.3-8.97.32-10.28 7.47-10.36 16.22-.07 8.04-.79 17.35-.46 25.36zm-22.08 1.85l14.5-1.27c.56-6.73.2-14.51.3-21.5.1-6.69.23-15.19-6.8-15.68-7.65-.54-7.54 8.47-7.61 15.05-.09 7.73-.04 15.7-.4 23.4zm-18.19 1.7l11.51-1.16c.28-3.07.31-26.12-.68-29.41-.73-2.44-2.5-5.1-4.93-5.3-6.2-.46-5.7 9.78-5.73 14.58-.01 7.04.1 14.28-.17 21.3zm-12.71 1.3l8.1-.82c-.17-6.12-.16-12.39-.2-18.59-.04-5.11.9-13.84-5.06-13.79-4.36 4.58-2.52 25.18-2.84 33.2zm87.18-7.16l26.67-1.39c-.08-9.56.16-19.18.28-28.67.12-9.31-4.28-15.08-14.09-14.97-10.17.11-12.45 6.7-12.53 16.25-.08 9.57-.1 19.22-.33 28.78zm49.46-31.14c1.39 4.5 3.01 9.28 4.53 14.02l2.32 7.2c.44 1.37.79 2.51 1.21 3.86l1.76 3.82 14.6-.24c-.16-8.24 1.75-22.35-2.33-28.38-3.93-5.8-17.36-5.94-22.09-.28zm-11.03 113.61l2.62 1.05c2.78.57 15.47.08 19.52.2 3.26.1 3.75.66 7.4.66 1.34-7.72.29-27.27.29-36.24 0-12.24-.67-22.1-14.07-22.2-6.2-.04-10.12 2.55-12.7 5.7-3.85 4.68-3.07 8.34-3.06 14.6 0 12.07-.02 24.15 0 36.23zm-39.43-1.27c2.6 1.09 19.08 1.22 24.92 1.78.81.07.53.16 1.49 0 1.85-.32.43.14 1.16-.5-.1-11.44-.02-22.9-.02-34.34 0-10.97-.82-20.8-13.03-20.9-5.59-.04-9.6 2.66-11.54 5.56-5.88 8.8-.83 30.76-2.97 48.4zm-35.17-2.55c1.64.96 15.22 1.9 16.61 1.92 2.15.04 4.15-.38 5.73.63 1.2-.67.61-.32.8-1.27.16-10.6.41-21.2.64-31.79.2-9.65-.15-19.93-11.54-19.46-4.77.2-8 3.02-9.72 5.98-3.2 5.55-2.23 36.28-2.52 44zm-23.45-1.9c.04 2.08.1 1.1 2.5 1.34 1.17.11 3.1-.14 4.48-.04 2.7.21 4.99 1.48 7.88-.02.15-9.16.48-18.16.75-27.37.19-6.61 1.32-19.35-6.69-19.5-8.33-.16-7.95 11.44-8.2 18.9-.3 8.95-.56 17.8-.72 26.7zm-18.1-1.27c4.13 0 7.14.64 12.06.64.08-8.06.64-16.22.75-24.37.07-5.78 2.14-20.45-5.47-19.67-6.28.64-6.01 13.67-6.18 19.43-.23 7.99-.69 15.96-1.17 23.97zm-12.8-1.27c1.73 1.04 5.4.64 8.2.64 0-7.55.66-15.17.75-22.74.07-5.53 1.76-15.74-2.82-18.33-2.5.3-2.41.4-3.34 2.75-2.35 5.99-2.08 30.16-2.8 37.68zm191.12 10.03c8.69.7 16.64-.5 25.6-.5a2534.9 2534.9 0 01-.01-40.05c.03-6.84-1.98-10.6-5.98-13.88-6.93-5.7-35.6-8.39-27.98 23.58 1.28 5.34 6.23 28.03 8.37 30.85zm-9.79-70.09c4.9 1.38 27.42.44 34.32.61 1.24-6.64.1-25.99.1-34-.01-11.01-4.73-16.29-16.97-17.31-13.62-1.14-17.69 5.15-17.6 16.67.1 11.27.33 22.78.15 34.03zm200.69-46.06c-.45-3.02-1.66-34.58-8.01-28.3-2.47 2.43-.61 13.82-.19 17.45 1.3 11.13-2.22 9.6 8.2 10.85zm-213.45-59.8c-1.44 9.94-.17 23.14-.71 33.85l15.27.2.35 15.83 30.67.43c-.33-10.17.08-20.5-.24-30.64-.3-9.12-10.45-11.72-19.3-11.2.07-3.15.1-6.55-.54-9.1-1.4-4.43-5.94-6.6-12.5-6.4-3.34.1-5.47.8-7.66 1.91-3.35 1.7-3.08 2.3-5.34 5.12zm63.56 50.47l26.51.18c.52-8.24-.04-18.01-.07-26.5 0-5.44 0-7.05-3.36-10.06-2.62-2.35-5.62-3.66-10.03-3.99-9.77-.74-13.58 4.39-13.44 13.42.11 7.36-.63 20.33.4 26.94zm64.2 2.93c-.2-6.4-.48-26.67-1.8-31.67-2.12-8.08-16.13-10.42-21.57-5.37-4.45 4.13-1.71 22.97-1.34 30.07.32 5.96-1.84 6.29 9.54 6.52 4.86.1 10.99 1.49 15.16.45zm12.89.19l20.68 1.76c-.9-7.5-1.1-14.8-1.63-22.3-.35-4.81-.45-12.61-9.6-14.3-9.37-1.73-12.07 4.02-11.2 12.43.76 7.36.7 14.87 1.75 22.4zm30.1 2.85l13.08.56c-.2-6.56-1.02-12.79-1.55-19.4-.46-5.82-.71-12.79-6.87-13.6-8.05-1.07-6.6 7.1-6.27 13.14.34 6.12.87 13.42 1.6 19.3zm19.43 1.12l10.38.67c.34-4.02-1.23-12.78-1.66-17.33-.45-4.62-.62-12.32-5.58-13.33-6.67-1.35-5.2 7.84-4.68 12.43.59 5.28 1.52 12.3 1.54 17.56zm-126.95 49.22l28.57.37c-.4-10.58-.2-21.57-.23-32.14-.02-5.52-.08-9.08-2.9-12.73-3.5-4.52-16.2-8.35-23.09-.82-3.43 3.76-2.7 7.99-2.68 13.55.06 7.73-.8 25.28.33 31.77zm41.96.3l25.99-.22c-.64-9.82-.72-19.53-1.18-29.3-.26-5.46.4-8.46-3.01-12.27-2.47-2.75-4.77-5.04-10.4-5.44-11.92-.84-13.49 6.66-13.04 17.06.25 5.8.49 26.31 1.64 30.17zm37.99-.76l21.93.19c-.03-5.93-.53-33.73-3.73-38.12-1.91-2.62-4.61-4.94-9.18-5.4-10.66-1.08-11.5 7.53-10.87 16.47.54 7.71.44 19.75 1.85 26.86zm31.24 0l14.19-.37c.36-6.04-.94-16.85-1.5-23.33-.6-7.03-.36-16.27-7.62-17.17-9.11-1.14-7.08 10.9-6.55 17.8.57 7.5 1.2 15.52 1.48 23.08zm20.4-.06l11.22-.16c-.23-6.66-1.22-14.27-1.9-20.89-.6-5.89-.54-15.77-6.24-16.65-7.45-1.14-5.36 11.48-4.9 16.63.6 6.47.66 14.89 1.82 21.07zm14.93-34.05c-2.3 6.65-.29 20.05.43 28.89.52 6.45-1.07 5.3 8.03 5.4.43-4.4-1.16-14.6-1.57-19.64-.43-5.23-.44-16.48-6.89-14.65zm3.2 94.98c1.39 0 2.83.07 4.18.07 3.17-.01 3.34.64 3.6-1.34-.3-7.19-.7-14.56-.92-21.67-.17-5.44.39-15.84-5.05-16.75-4.43 2.36-2.67 13.36-2.47 18.7.28 7.02.44 13.9.66 21zm-36.39 2.54c1.09.79 12.88-.5 14.42-.63-.29-5.86-.42-34.28-1.65-38.38-.94-3.17-3.37-6.5-6.64-6.68-3.76-.2-5.82 3.2-6.56 6.59-.84 3.91-.32 8.97-.19 13.04.28 8.19.9 17.93.62 26.06zm20.2-1.27c4.38 0 9.11.32 12.05-1.13-4.52-10.77 3.94-42.64-9.7-41.34-4.92 6.47-3.33 11.5-2.98 20.22.28 6.8.95 15.57.64 22.25zm-51.78 3.81c1.8 0 21.21-1.07 22.45-1.9-1.87-23.13 4.54-48.93-12.65-48.8-10.64.09-10.59 10.71-10.38 20.2.21 10.07.66 20.44.58 30.5zm-38.4 1.91c5.27 0 8.76-.65 13.21-.66 2.25 0 4.8.15 7.01.03 2.88-.16 2.97-.64 6.29-.64-.08-11.22-.04-22.47-.03-33.7.02-9.63-1.67-19.05-13.89-19.02-12.2.04-12.5 10-12.5 20.93 0 10.8.4 22.35-.08 33.06z" fill="#f37e16"/><path d="M370.23 116.15c3.3 0 6.4.79 9.16 2.18a16.54 16.54 0 0127.63 7.93 13.1 13.1 0 018.44 7.89 13.04 13.04 0 11-4.78 24.44 13.05 13.05 0 01-21.78 5.51 13 13 0 01-18.17.35 13.02 13.02 0 01-18.77.49A15.54 15.54 0 11350 134.3a20.35 20.35 0 0120.23-18.15z" fill="#fff"/><path d="M283.27 64.4a34.48 34.48 0 110 68.97 34.48 34.48 0 010-68.96z" fill="#ff0"/><path d="M214.32 84.21c1.74 0 3.38.41 4.83 1.14a8.72 8.72 0 0114.56 4.19 6.87 6.87 0 014.45 4.15 6.88 6.88 0 11-2.51 12.88 6.88 6.88 0 01-11.49 2.9 6.82 6.82 0 01-9.57.19 6.85 6.85 0 01-9.9.26 8.19 8.19 0 11-1.03-16.14 10.73 10.73 0 0110.66-9.57z" fill="#fff"/><path d="M73.01 106.93s5.77-1.24 10.6-.32c4.84.93 9.88 4.95 15.33 5.26 5.45.3 4.32-1.76 4.32-1.76s-3.5.52-4.42-2.46c-.92-2.98 2.88-5.36 8.75-9.47 5.86-4.11 7-8.23 5.86-10.8 0 0-1.03 1.64-5.86 4.21-4.84 2.58-8.34 7.31-12.15 10.7-3.8 3.4-4 3.6-7.61 2.88-3.6-.71-11.32-1.85-14.82 1.76zM343.5 92.82s5.77-1.25 10.6-.32c4.84.93 9.88 4.95 15.33 5.25 5.46.3 4.33-1.75 4.33-1.75s-3.5.51-4.43-2.46c-.92-3 2.88-5.36 8.74-9.47 5.87-4.12 7-8.24 5.87-10.81 0 0-1.03 1.65-5.87 4.22-4.83 2.58-8.32 7.31-12.13 10.7-3.81 3.4-4.02 3.6-7.62 2.88-3.6-.72-11.32-1.85-14.82 1.76z"/></svg>
