<?xml version="1.0" encoding="iso-8859-1"?>
<!-- Generator: Adobe Illustrator 19.0.0, SVG Export Plug-In . SVG Version: 6.00 Build 0)  -->
<svg version="1.1" id="Layer_1" xmlns="http://www.w3.org/2000/svg" xmlns:xlink="http://www.w3.org/1999/xlink" x="0px" y="0px"
	 viewBox="0 0 512 512" style="enable-background:new 0 0 512 512;" xml:space="preserve">
<path style="fill:#8FC9F7;" d="M256,0c141.383,0,256,114.611,256,256c0,141.383-114.617,256-256,256C114.611,512,0,397.383,0,256
	C0,114.611,114.611,0,256,0z"/>
<path style="fill:#ADD37F;" d="M24.033,364.387h463.934C447.156,451.585,358.639,512,256,512S64.844,451.585,24.033,364.387z"/>
<path style="fill:#F7A724;" d="M276.977,364.387l46.935,138.485C302.282,508.808,279.515,512,256,512
	c-24.881,0-48.932-3.569-71.675-10.188l43.985-137.425H276.977z"/>
<path style="fill:#F9BF2C;" d="M237.267,364.387h30.705l47.654,140.611C296.493,509.568,276.535,512,256,512
	c-21.901,0-43.154-2.756-63.442-7.932L237.267,364.387z"/>
<path style="fill:#FBD734;" d="M65.291,213.087c-0.771,1.725-1.39,13.427-1.731,16.071l-1.449,16.99c-2.509,0-2.579,0.2-4.452,0.636
	l1.831,14.069c0.159,2.821-0.489,1.985-0.559,5.006c3.05-0.73,0.989-0.436,1.908,0c-0.701,3.015-0.495,5.748-1.001,9.163
	c-0.412,2.774-0.689,7.597-0.866,9.941l-1.313,20.305c-1.967,0.171-1.201-0.006-2.538,0.636v3.628l44.226-3.504
	c14.581-1.325,29.851-2.232,44.786-2.956c27.708-1.349,52.977-2.85,80.72-3.298c6.69-0.112,5.471,0.053,10.329,1.867l0.124,7.909
	c-0.13-0.106-0.383-0.495-0.483-0.347c-0.094,0.141-0.389-0.259-0.518-0.347c-0.135-0.088-0.754-0.53-0.919-0.642
	c-0.724-0.506-0.925-0.824-1.955-1.154c-3.121-0.983-82.228,2.42-85.479,2.579c-15.305,0.742-29.975,2.038-45.086,2.897
	c-14.734,0.836-29.627,2.621-44.474,2.897c-1.254,1.201-0.766,0.412-1.366,2.485c-0.171,0.595-0.459,2.114-0.542,2.85l43.843-3.563
	c14.952-1.154,30.099-2.273,45.139-3.033c15.547-0.783,30.864-1.49,46.423-2.202c7.444-0.342,15.459-0.453,23.102-0.854
	c3.946-0.206,7.903-0.194,11.86-0.265c6.572-0.124,5.294-0.171,10.2,1.92l0.283,7.709c-4.411-4.246-12.703-2.656-21.312-2.356
	l-69.278,2.467c-10.412,0.495-84.477,5.006-88.871,6.289c-0.824,10.995-3.298,34.468-3.298,44.503
	c2.544,0.212,3.133,0.636,6.578,0.636c0.718-7.52,0.448-31.689,2.797-37.678c0.925-2.344,0.842-2.45,3.339-2.75
	c4.576,2.591,2.886,12.803,2.821,18.332c-0.094,7.561-0.76,15.182-0.76,22.731c1.879,0.318,2.385,0.636,4.599,0.636
	c0.483-8.015,0.936-15.983,1.172-23.968c0.165-5.759-0.1-18.792,6.178-19.434c7.603-0.777,5.542,13.892,5.465,19.675
	c-0.112,8.144-0.665,16.307-0.748,24.363c1.596,1.036,3.498,0.636,6.042,0.636c0.165-8.892,0.424-17.744,0.724-26.701
	c0.247-7.455-0.135-19.051,8.197-18.892c8.009,0.147,6.878,12.885,6.684,19.498c-0.271,9.21-0.595,18.209-0.748,27.366l8.592,0.63
	c0.289-7.715-0.677-38.443,2.52-43.991c1.714-2.968,4.947-5.789,9.717-5.983c11.395-0.471,11.749,9.811,11.542,19.463
	c-0.23,10.588-0.477,21.194-0.642,31.783c2.515,0.436,2.992,0.677,6.195,0.648c2.226-0.018,4.664-0.436,5.842,0.624
	c2.144-17.638-2.903-39.598,2.974-48.396c1.937-2.903,5.954-5.6,11.537-5.559c12.214,0.088,13.038,9.929,13.038,20.9
	c-0.006,11.436-0.077,22.896,0.012,34.327h11.86c-0.012-12.078,0.006-24.157,0-36.235c-0.006-6.26-0.789-9.917,3.056-14.605
	c2.585-3.139,6.501-5.73,12.708-5.683c13.403,0.094,14.075,9.952,14.069,22.196c0,8.963,1.054,28.52-0.289,36.235
	c8.292,0,14.658,0.448,21.242,0.636h7.879l3.504-0.771c-2.132-2.821-7.09-25.511-8.368-30.858
	c-7.609-31.965,21.053-29.268,27.984-23.574c3.999,3.286,6.013,7.037,5.977,13.874c-0.077,13.315-0.124,26.742,0.012,40.057h15.576
	c0.389-11.454,0.065-23.45,0.065-34.963c0-5.359-0.695-11.495,2.132-15.741c5.489-8.245,17.755-7.267,23.674-0.448
	c3.71,4.275,3.121,8.763,3.115,14.917c-0.006,9.134,1.036,27.578-0.265,35.599c3.156-1.478,9.852-0.636,14.139-0.636
	c0.477-10.706,0.082-22.26,0.082-33.055c0-10.942,0.3-20.9,12.502-20.935c12.214-0.029,13.91,9.387,13.892,19.027
	c-0.018,11.219-0.059,22.472,0.024,33.691c3.875-0.306,7.055-0.636,11.896-0.636c0.077-10.058-0.371-20.429-0.583-30.511
	c-0.206-9.481-0.265-20.105,10.382-20.187c17.19-0.13,10.777,25.67,12.644,48.79c3.357,0,6.719,0.365,9.134-0.63
	c0.271-8.139-0.342-17.879-0.618-26.065c-0.135-4.069-0.654-9.128,0.188-13.044c0.736-3.392,2.797-6.784,6.56-6.584
	c3.268,0.177,5.695,3.51,6.637,6.678c1.231,4.105,1.366,32.519,1.649,38.379c2.438-0.559,2.579-0.636,5.789-0.636
	c0.318-6.678-0.353-15.447-0.636-22.254c-0.353-8.716-1.943-13.751,2.974-20.217c13.645-1.301,5.182,30.57,9.705,41.341l4.146-0.141
	c-0.224-7.084-0.389-13.969-0.66-20.982c-0.206-5.353-1.967-16.348,2.462-18.709c5.441,0.907,4.882,11.313,5.059,16.748
	c0.224,7.114,0.618,14.487,0.919,21.671c4.676,0,6.79-0.636,10.959-0.636c0-6.331-1.384-11.89-1.89-17.82
	c-1.319-15.494-4.44-37.236-6.319-53.437l-8.321-71.139l-20.588-5.471c-7.397-1.861-14.463-3.28-21.942-4.764
	c-20.876-4.134-37.648-5.712-58.183-8.563l-30.234-2.821c-2.509-0.124-4.216,0.112-6.731-0.265
	c-6.072-0.919-43.861-1.637-51.982-1.637c0.636,2.55,0.607,5.954,0.536,9.11c8.851-0.524,19.004,2.073,19.298,11.195
	c0.324,10.141-0.088,20.464,0.247,30.64l-30.676-0.43l-0.347-15.841l-15.27-0.194c0.536-10.712-0.73-23.909,0.713-33.844
	c-9.882,0-50.363,2.303-59.096,3.539c-2.314,0.33-6.814,0.866-8.627,0.907l-6.531-15.741c-0.724-1.413-0.524-1.142-1.095-1.425
	c-9.146-3.74-12.438-4.169-23.155-1.225c-6.607,1.814-15.535,4.405-21.807,6.072C94.13,201.745,78.023,207.787,65.291,213.087z"/>
<path style="fill:#FFED58;" d="M65.291,213.087c-0.771,1.725-1.39,13.427-1.731,16.071l-1.449,16.99c-2.509,0-2.579,0.2-4.452,0.636
	l1.831,14.069c0.159,2.821-0.489,1.985-0.559,5.006c3.05-0.73,0.989-0.436,1.908,0c-0.701,3.015-0.495,5.748-1.001,9.163
	c-0.412,2.774-0.689,7.597-0.866,9.941l-1.313,20.305c-1.967,0.171-1.201-0.006-2.538,0.636v3.628l44.226-3.504
	c14.581-1.325,29.851-2.232,44.786-2.956c27.708-1.349,52.977-2.85,80.72-3.298c6.69-0.112,5.471,0.053,10.329,1.867l-11.625-6.342
	l-14.599,0.271l-9.817-28.903l-39.132-56.116l-6.531-15.741c-0.724-1.413-0.524-1.142-1.095-1.425c0-3.298,0.253-6.761-0.177-9.999
	c-0.253-1.937-0.919-6.295-1.095-8.433c-2.803-0.236-9.016-2.827-11.56-2.997c-2.238-0.159-1.519,0.395-4.334,0.453
	c-1.349-5.777-4.128-12.714-6.119-18.674l-4.346-13.739c-0.436-6.855-2.061-10.17-5.059-10.812h-2.497
	c-2.22,0.377-4.959,1.643-8.245,3.61c-10.906,6.531-22.761,16.006-31.106,25.476c-1.29,1.472-1.413,1.996-2.868,3.492
	c-4.982,5.147-4.841,11.925-5.824,18.963c-0.259,1.873-2.085,13.456-3.345,15.735l-0.718,1.72c-0.006,0.059-0.171,2.197-0.194,2.432
	C64.461,204.413,65.291,208.399,65.291,213.087z M88.453,177.188c0.253-5.33-0.2-15.353-6.973-13.203
	c-5.229,1.661-4.281,10.223-4.399,15.523l-0.13,17.361c3.504-0.294,8.869-1.095,11.531-2.591L88.453,177.188z M95.484,174.915
	l-0.342,18.515l14.422-2.414L109.853,172c0.059-3.545,0.671-7.503-0.713-10.759c-2.568-6.03-11.342-5.659-13.268,2.632
	C95.113,167.165,95.631,171.422,95.484,174.915z M235.247,309.496c-0.135-0.147-0.336-0.424-0.424-0.294
	c-0.094,0.141-0.389-0.259-0.518-0.347c-0.135-0.088-0.754-0.53-0.919-0.642c-0.724-0.506-0.925-0.824-1.955-1.154
	c-3.121-0.983-82.228,2.42-85.479,2.579c-15.305,0.742-29.975,2.038-45.086,2.897c-14.734,0.836-29.627,2.621-44.474,2.897
	c-1.254,1.201-0.766,0.412-1.366,2.485c-0.171,0.595-0.459,2.114-0.542,2.85l43.843-3.563c14.952-1.154,30.099-2.273,45.139-3.033
	c15.547-0.783,30.864-1.49,46.423-2.202c7.444-0.342,15.459-0.453,23.102-0.854c3.946-0.206,7.903-0.194,11.86-0.265
	c6.572-0.124,5.294-0.171,10.2,1.92l0.283,7.709l5.565,25.181l0.006,0.012c0.206,1.714,0.536,3.551,1.001,5.524
	c0.789,3.31,2.992,13.244,5.059,21.018c1.396,5.418,2.656,9.576,3.31,9.841l-3.504,0.771h-7.879
	c-6.584-0.188-12.95-0.636-21.242-0.636c1.343-7.715,0.289-27.272,0.289-36.235c0.006-12.243-0.665-22.101-14.069-22.196
	c-6.207-0.047-10.123,2.544-12.708,5.683c-3.846,4.688-3.062,8.345-3.056,14.605c0.006,12.078-0.012,24.157,0,36.235h-11.86
	c-0.088-11.431-0.018-22.891-0.012-34.327c0-10.971-0.824-20.812-13.038-20.9c-5.583-0.041-9.599,2.656-11.537,5.559
	c-5.877,8.798-0.83,30.758-2.974,48.396c-1.178-1.06-3.616-0.642-5.842-0.624c-3.204,0.029-3.681-0.212-6.195-0.648
	c0.165-10.588,0.412-21.194,0.642-31.783c0.206-9.652-0.147-19.934-11.542-19.463c-4.77,0.194-8.003,3.015-9.717,5.983
	c-3.198,5.547-2.232,36.276-2.52,43.991l-8.592-0.63c0.153-9.157,0.477-18.156,0.748-27.366c0.194-6.613,1.325-19.351-6.684-19.498
	c-8.333-0.159-7.95,11.436-8.197,18.892c-0.3,8.957-0.559,17.808-0.724,26.701c-2.544,0-4.446,0.4-6.042-0.636
	c0.082-8.056,0.636-16.218,0.748-24.363c0.077-5.783,2.138-20.452-5.465-19.675c-6.278,0.642-6.013,13.674-6.178,19.434
	c-0.236,7.985-0.689,15.953-1.172,23.968c-2.214,0-2.721-0.318-4.599-0.636c0-7.55,0.665-15.17,0.76-22.731
	c0.065-5.53,1.755-15.741-2.821-18.332c-2.497,0.3-2.414,0.406-3.339,2.75c-2.35,5.989-2.079,30.157-2.797,37.678
	c-3.445,0-4.034-0.424-6.578-0.636c0-10.035,2.473-33.508,3.298-44.503c4.393-1.284,78.459-5.795,88.871-6.289l69.278-2.467
	c8.61-0.3,16.901-1.89,21.312,2.356L235.247,309.496z"/>
<path style="fill:#F9BF2C;" d="M152.383,193.382c0-3.298,0.253-6.761-0.177-9.999c-0.253-1.937-0.919-6.295-1.095-8.433
	c-2.803-0.236-9.016-2.827-11.56-2.997c-2.238-0.159-1.519,0.395-4.334,0.453c-1.349-5.777-4.128-12.714-6.119-18.674l-4.346-13.739
	c-0.436-6.855-2.061-10.17-5.059-10.812h-2.497c-0.583,0.1-1.201,0.259-1.855,0.477l2.756,16.784l2.656,3.987
	c0,0-1.331,5.312,0,7.968c1.325,2.656,6.637,15.936,6.637,15.936l3.987,5.312c0,0,11.955-1.325,13.28,1.331
	c1.331,2.656,0.289,9.829,0.289,9.829v0.006l10.341,24.698l33.202,49.144c0,0,7.968,22.572,9.293,27.884
	c1.331,5.318,11.177,3.033,11.177,3.033l-9.817-28.903l-39.132-56.116l-6.531-15.741
	C152.754,193.394,152.955,193.665,152.383,193.382z"/>
<g>
	<path style="fill:#F7A724;" d="M55.121,309.531c-1.443,1.343-1.466,1.649-1.631,4.417c-0.165,2.797,0.453,1.702,2.903,1.484
		c14.846-0.277,29.739-2.061,44.474-2.897c15.111-0.86,29.781-2.155,45.086-2.897c3.251-0.159,82.357-3.563,85.479-2.579
		c1.031,0.33,1.231,0.648,1.955,1.154c0.165,0.112,0.783,0.554,0.919,0.642c0.13,0.088,0.424,0.489,0.518,0.347
		c0.1-0.147,0.353,0.241,0.483,0.347l-0.124-7.909c-4.858-1.814-3.639-1.979-10.329-1.867c-27.743,0.448-53.013,1.949-80.72,3.298
		c-14.934,0.724-30.205,1.631-44.786,2.956L55.121,309.531z"/>
	<path style="fill:#F7A724;" d="M54.485,320.767c-0.819,1.796-0.895,4.482-1.272,6.113h2.662c4.393-1.284,78.459-5.795,88.871-6.289
		l69.278-2.467c8.61-0.3,16.901-1.89,21.312,2.356l-0.283-7.709c-4.906-2.091-3.628-2.043-10.2-1.92
		c-3.957,0.071-7.915,0.059-11.86,0.265c-7.644,0.4-15.659,0.512-23.102,0.854c-15.559,0.713-30.876,1.419-46.423,2.202
		c-15.04,0.76-30.187,1.879-45.139,3.033L54.485,320.767z"/>
</g>
<path style="fill:#F37E16;" d="M291.458,381.553c10.105,0,18.315-0.636,28.721-0.636c1.301-8.021,0.259-26.465,0.265-35.599
	c0.006-6.154,0.595-10.641-3.115-14.917c-5.918-6.819-18.185-7.797-23.674,0.448c-2.827,4.246-2.132,10.382-2.132,15.741
	C291.522,358.103,291.846,370.099,291.458,381.553z M73.312,226.284c0.318-4.782,0.718-9.935-3.575-11.696
	c-4.47,2.067-4.058,8.233-4.193,13.209l-0.63,17.431l7.974-1.755L73.312,226.284z M88.453,222.698
	c0.253-5.324-0.2-15.347-6.973-13.203c-5.229,1.661-4.281,10.229-4.399,15.523l-0.13,17.367c3.504-0.3,8.869-1.101,11.531-2.591
	L88.453,222.698z M95.484,220.425l-0.342,18.515l14.422-2.414l0.289-19.01c0.059-3.545,0.671-7.508-0.713-10.765
	c-2.568-6.03-11.342-5.653-13.268,2.632C95.113,212.681,95.631,216.932,95.484,220.425z M117.25,215.708l-0.347,18.998
	c1.667,0.736,3.816,0.312,5.63,0.071l16.972-2.002l0.607-19.846c0.771-10.217,0.236-19.51-11.76-18.138
	C118.386,195.938,116.69,205.431,117.25,215.708z M115.477,300.12l22.349-1.655c1.019-6.307,0.624-18.698,0.807-25.623
	c0.218-8.321-3.828-14.599-12.332-14.298c-8.975,0.312-10.276,7.467-10.359,16.212C115.866,282.795,115.153,292.105,115.477,300.12z
	 M93.399,301.969l14.51-1.266c0.554-6.737,0.194-14.516,0.3-21.501c0.1-6.69,0.224-15.188-6.808-15.682
	c-7.65-0.536-7.538,8.474-7.614,15.046C93.7,286.299,93.753,294.273,93.399,301.969z M75.214,303.677l11.507-1.166
	c0.283-3.068,0.312-26.124-0.677-29.415c-0.73-2.432-2.497-5.1-4.929-5.288c-6.207-0.471-5.712,9.77-5.73,14.575
	C75.367,289.42,75.473,296.663,75.214,303.677z M62.5,304.961l8.097-0.807c-0.165-6.125-0.159-12.39-0.2-18.592
	c-0.041-5.112,0.895-13.845-5.053-13.792C60.98,276.346,62.818,296.952,62.5,304.961z M149.68,297.812l26.671-1.39
	c-0.077-9.564,0.159-19.186,0.277-28.668c0.118-9.316-4.275-15.088-14.086-14.976c-10.176,0.112-12.455,6.696-12.532,16.248
	C149.934,278.596,149.916,288.254,149.68,297.812z M199.142,266.665c1.384,4.511,3.009,9.287,4.529,14.022
	c0.795,2.479,1.525,4.729,2.32,7.208c0.442,1.366,0.789,2.509,1.213,3.851l1.755,3.822l14.599-0.236
	c-0.159-8.245,1.749-22.355-2.332-28.385C217.298,261.141,203.865,261.012,199.142,266.665z M188.106,380.281l2.626,1.048
	c2.78,0.571,15.464,0.082,19.516,0.2c3.262,0.1,3.757,0.66,7.402,0.66c1.343-7.715,0.289-27.272,0.289-36.235
	c0.006-12.243-0.665-22.101-14.069-22.196c-6.207-0.047-10.123,2.544-12.708,5.683c-3.846,4.688-3.062,8.345-3.056,14.605
	C188.112,356.125,188.094,368.203,188.106,380.281z M148.685,379.009c2.603,1.089,19.08,1.225,24.916,1.778
	c0.813,0.077,0.524,0.165,1.484,0c1.855-0.318,0.43,0.147,1.16-0.506c-0.088-11.431-0.018-22.891-0.012-34.327
	c0-10.971-0.824-20.812-13.038-20.9c-5.583-0.041-9.599,2.656-11.537,5.559C145.782,339.412,150.829,361.372,148.685,379.009z
	 M113.51,376.465c1.643,0.96,15.223,1.89,16.613,1.92c2.149,0.035,4.146-0.383,5.73,0.624c1.201-0.671,0.612-0.324,0.795-1.272
	c0.165-10.588,0.412-21.194,0.642-31.783c0.206-9.652-0.147-19.934-11.542-19.463c-4.77,0.194-8.003,3.015-9.717,5.983
	C112.833,338.022,113.799,368.75,113.51,376.465z M90.06,374.563c0.041,2.073,0.1,1.101,2.497,1.337
	c1.172,0.112,3.104-0.135,4.482-0.035c2.709,0.206,4.988,1.478,7.879-0.029c0.153-9.157,0.477-18.156,0.748-27.366
	c0.194-6.613,1.325-19.351-6.684-19.498c-8.333-0.159-7.95,11.436-8.197,18.892C90.484,356.819,90.225,365.671,90.06,374.563z
	 M71.952,373.291c4.14,0,7.149,0.636,12.067,0.636c0.082-8.056,0.636-16.218,0.748-24.363c0.077-5.783,2.138-20.452-5.465-19.675
	c-6.278,0.642-6.013,13.674-6.178,19.434C72.888,357.308,72.435,365.276,71.952,373.291z M59.155,372.019
	c1.737,1.042,5.406,0.636,8.197,0.636c0-7.55,0.665-15.17,0.76-22.731c0.065-5.53,1.755-15.741-2.821-18.332
	c-2.497,0.3-2.414,0.406-3.339,2.75C59.602,340.33,59.873,364.499,59.155,372.019z M250.276,382.054
	c8.692,0.701,16.642-0.501,25.605-0.501c-0.135-13.315-0.088-26.742-0.012-40.057c0.035-6.837-1.979-10.588-5.977-13.874
	c-6.931-5.695-35.593-8.392-27.984,23.574C243.186,356.543,248.144,379.233,250.276,382.054z M240.494,311.963
	c4.894,1.372,27.419,0.436,34.321,0.607c1.231-6.637,0.1-25.988,0.094-34.003c-0.012-11.007-4.729-16.283-16.972-17.308
	c-13.615-1.142-17.685,5.147-17.59,16.672C240.435,289.202,240.671,300.715,240.494,311.963z M441.179,265.905
	c-0.448-3.021-1.655-34.58-8.009-28.314c-2.467,2.438-0.612,13.833-0.188,17.461C434.271,266.182,430.756,264.645,441.179,265.905z
	 M227.733,206.103c-1.443,9.935-0.177,23.132-0.713,33.844l15.27,0.194l0.347,15.841l30.676,0.43
	c-0.336-10.176,0.077-20.5-0.247-30.64c-0.294-9.122-10.447-11.719-19.298-11.195c0.071-3.156,0.1-6.56-0.536-9.11
	c-1.396-4.423-5.942-6.596-12.502-6.401c-3.345,0.1-5.471,0.807-7.656,1.914C229.723,202.681,229.994,203.288,227.733,206.103z
	 M291.293,256.565l26.512,0.188c0.518-8.245-0.047-18.014-0.071-26.5c-0.012-5.441,0-7.049-3.363-10.064
	c-2.621-2.35-5.618-3.657-10.035-3.987c-9.77-0.742-13.574,4.387-13.439,13.415C291.01,236.984,290.274,249.946,291.293,256.565z
	 M355.483,259.498c-0.188-6.407-0.477-26.665-1.79-31.665c-2.12-8.086-16.136-10.418-21.571-5.371
	c-4.452,4.128-1.714,22.967-1.343,30.069c0.318,5.96-1.843,6.289,9.546,6.519C345.183,259.151,351.307,260.535,355.483,259.498z
	 M368.379,259.687l20.676,1.767c-0.895-7.497-1.089-14.799-1.625-22.307c-0.347-4.811-0.448-12.608-9.605-14.298
	c-9.363-1.725-12.067,4.022-11.201,12.426C367.39,244.64,367.325,252.149,368.379,259.687z M398.472,262.543l13.085,0.559
	c-0.188-6.56-1.019-12.791-1.543-19.41c-0.459-5.812-0.718-12.779-6.872-13.598c-8.05-1.06-6.607,7.114-6.272,13.144
	C397.206,249.363,397.736,256.66,398.472,262.543z M417.912,263.662l10.376,0.671c0.347-4.022-1.225-12.785-1.661-17.337
	c-0.448-4.611-0.612-12.32-5.577-13.327c-6.666-1.349-5.194,7.838-4.682,12.432C416.958,251.377,417.894,258.403,417.912,263.662z
	 M290.963,312.882l28.562,0.371c-0.4-10.583-0.194-21.577-0.224-32.142c-0.018-5.524-0.082-9.081-2.903-12.726
	c-3.504-4.529-16.189-8.356-23.085-0.824c-3.433,3.757-2.709,7.985-2.679,13.551C290.686,288.837,289.832,306.386,290.963,312.882z
	 M332.922,313.182l25.988-0.224c-0.636-9.823-0.718-19.528-1.184-29.304c-0.259-5.453,0.395-8.451-3.009-12.261
	c-2.462-2.75-4.77-5.047-10.394-5.441c-11.925-0.842-13.492,6.66-13.044,17.055C331.532,288.808,331.768,309.325,332.922,313.182z
	 M370.906,312.422l21.936,0.188c-0.035-5.93-0.53-33.726-3.728-38.119c-1.914-2.621-4.617-4.941-9.181-5.4
	c-10.659-1.078-11.507,7.532-10.877,16.471C369.604,293.271,369.504,305.314,370.906,312.422z M402.147,312.428l14.192-0.377
	c0.359-6.042-0.942-16.848-1.496-23.326c-0.601-7.037-0.359-16.271-7.62-17.178c-9.116-1.137-7.079,10.895-6.554,17.802
	C401.24,296.846,401.864,304.873,402.147,312.428z M422.552,312.363l11.219-0.165c-0.236-6.66-1.219-14.269-1.896-20.888
	c-0.601-5.889-0.542-15.765-6.248-16.648c-7.45-1.142-5.353,11.478-4.888,16.625C421.321,297.759,421.386,306.18,422.552,312.363z
	 M437.481,278.313c-2.303,6.649-0.289,20.052,0.43,28.885c0.524,6.448-1.072,5.306,8.033,5.4c0.424-4.393-1.166-14.605-1.578-19.64
	C443.941,287.73,443.935,276.482,437.481,278.313z M440.684,373.291c1.384,0,2.827,0.071,4.175,0.071
	c3.168-0.012,3.339,0.636,3.604-1.343c-0.3-7.185-0.695-14.558-0.919-21.671c-0.177-5.436,0.383-15.841-5.059-16.748
	c-4.429,2.361-2.668,13.356-2.462,18.709C440.296,359.322,440.461,366.206,440.684,373.291z M404.29,375.835
	c1.089,0.783,12.885-0.512,14.416-0.636c-0.283-5.86-0.418-34.274-1.649-38.379c-0.942-3.168-3.368-6.501-6.637-6.678
	c-3.763-0.2-5.824,3.192-6.56,6.584c-0.842,3.916-0.324,8.975-0.188,13.044C403.949,357.956,404.561,367.696,404.29,375.835z
	 M424.496,374.563c4.37,0,9.104,0.318,12.043-1.131c-4.523-10.771,3.94-42.642-9.705-41.341c-4.917,6.466-3.327,11.501-2.974,20.217
	C424.142,359.116,424.814,367.885,424.496,374.563z M372.714,378.373c1.802,0,21.206-1.072,22.443-1.908
	c-1.867-23.12,4.546-48.92-12.644-48.79c-10.647,0.082-10.588,10.706-10.382,20.187C372.343,357.944,372.79,368.315,372.714,378.373
	z M334.318,380.281c5.265,0,8.751-0.654,13.203-0.66c2.25,0,4.8,0.147,7.014,0.029c2.88-0.159,2.962-0.642,6.284-0.642
	c-0.082-11.219-0.041-22.472-0.024-33.691c0.018-9.64-1.678-19.057-13.892-19.027c-12.202,0.035-12.502,9.994-12.502,20.935
	C334.4,358.021,334.795,369.575,334.318,380.281z"/>
<path style="fill:#FFFFFF;" d="M370.229,116.154c3.292,0,6.401,0.783,9.157,2.173c2.974-2.915,7.055-4.717,11.554-4.717
	c7.797,0,14.328,5.394,16.077,12.65c3.893,1.172,7.014,4.111,8.445,7.885c0.465-0.053,0.942-0.071,1.425-0.071
	c7.196,0,13.038,5.836,13.038,13.038s-5.842,13.038-13.038,13.038c-2.25,0-4.358-0.565-6.201-1.561
	c-1.584,5.418-6.59,9.375-12.52,9.375c-3.622,0-6.896-1.478-9.263-3.863c-2.361,2.385-5.642,3.863-9.269,3.863
	c-3.439,0-6.572-1.337-8.904-3.516c-2.385,2.603-5.812,4.24-9.623,4.24c-3.569,0-6.802-1.425-9.151-3.751
	c-1.078,0.241-2.202,0.365-3.345,0.365c-8.586,0-15.541-6.955-15.541-15.535s6.955-15.535,15.541-15.535
	c0.465,0,0.93,0.024,1.384,0.065C351.095,124.093,359.734,116.154,370.229,116.154z"/>
<path style="fill:#FFFF00;" d="M283.272,64.408c19.045,0,34.48,15.441,34.48,34.48s-15.435,34.474-34.48,34.474
	c-19.039,0-34.474-15.435-34.474-34.474S264.233,64.408,283.272,64.408z"/>
<path style="fill:#FFFFFF;" d="M214.324,84.212c1.737,0,3.374,0.412,4.829,1.142c1.566-1.537,3.716-2.485,6.089-2.485
	c4.105,0,7.544,2.844,8.468,6.672c2.055,0.612,3.698,2.161,4.452,4.152c0.241-0.029,0.495-0.041,0.748-0.041
	c3.793,0,6.872,3.08,6.872,6.872c0,3.793-3.08,6.872-6.872,6.872c-1.184,0-2.297-0.294-3.262-0.824
	c-0.836,2.856-3.475,4.941-6.596,4.941c-1.914,0-3.639-0.777-4.888-2.038c-1.243,1.26-2.968,2.038-4.876,2.038
	c-1.82,0-3.469-0.707-4.699-1.855c-1.254,1.372-3.062,2.238-5.07,2.238c-1.879,0-3.581-0.754-4.823-1.979
	c-0.565,0.13-1.16,0.194-1.761,0.194c-4.523,0-8.186-3.669-8.186-8.192c0-4.517,3.663-8.18,8.186-8.18
	c0.247,0,0.489,0.012,0.73,0.035C204.248,88.4,208.8,84.212,214.324,84.212z"/>
<g>
	<path d="M73.012,106.926c0,0,5.765-1.237,10.6-0.312c4.835,0.93,9.876,4.941,15.329,5.253c5.453,0.306,4.323-1.755,4.323-1.755
		s-3.498,0.518-4.423-2.467c-0.925-2.98,2.88-5.353,8.745-9.464c5.865-4.116,6.996-8.233,5.865-10.806c0,0-1.031,1.643-5.865,4.217
		c-4.841,2.573-8.333,7.308-12.143,10.7c-3.804,3.398-4.01,3.604-7.614,2.88C84.23,104.459,76.51,103.322,73.012,106.926z"/>
	<path d="M343.499,92.816c0,0,5.771-1.243,10.6-0.312c4.841,0.925,9.882,4.941,15.335,5.247c5.453,0.306,4.323-1.749,4.323-1.749
		s-3.498,0.512-4.429-2.467c-0.919-2.986,2.886-5.359,8.745-9.469c5.871-4.116,7.002-8.233,5.871-10.806
		c0,0-1.031,1.649-5.871,4.222c-4.835,2.573-8.327,7.308-12.137,10.694c-3.81,3.398-4.016,3.604-7.614,2.886
		C354.723,90.337,347.002,89.212,343.499,92.816z"/>
</g>
<g>
</g>
<g>
</g>
<g>
</g>
<g>
</g>
<g>
</g>
<g>
</g>
<g>
</g>
<g>
</g>
<g>
</g>
<g>
</g>
<g>
</g>
<g>
</g>
<g>
</g>
<g>
</g>
<g>
</g>
</svg>
