<svg xmlns="http://www.w3.org/2000/svg" xml:space="preserve" width="512" height="512" style="enable-background:new 0 0 512 512" viewBox="0 0 511 512"><path fill="#ff4e61" d="M101.922 496.348a7.37 7.37 0 0 1-5.149-2.09 7.388 7.388 0 0 1-.152-10.453l9.188-9.465a7.392 7.392 0 1 1 10.61 10.297l-9.192 9.465a7.36 7.36 0 0 1-5.305 2.246zm99.726-363.086a7.361 7.361 0 0 1-5.144-2.09 7.387 7.387 0 0 1-.156-10.45l9.191-9.468a7.392 7.392 0 0 1 10.606 10.297l-9.192 9.469a7.37 7.37 0 0 1-5.305 2.242zm0 0" data-original="#ff4e61"/><path fill="#5c73bc" d="M413.805 100.39a7.392 7.392 0 0 1-5.305-12.54l9.191-9.467a7.395 7.395 0 0 1 10.454-.153c2.93 2.84 3 7.524.156 10.45l-9.192 9.468a7.37 7.37 0 0 1-5.304 2.243zm0 0" data-original="#5c73bc"/><path fill="#fa0" d="M413.805 463.773a7.392 7.392 0 0 1-5.305-12.54l9.191-9.467a7.392 7.392 0 1 1 10.61 10.297l-9.192 9.468a7.37 7.37 0 0 1-5.304 2.242zM63.07 112.91a7.392 7.392 0 0 1-5.3-12.54l9.19-9.468a7.395 7.395 0 0 1 10.454-.152 7.391 7.391 0 0 1 .152 10.45l-9.191 9.468a7.37 7.37 0 0 1-5.305 2.242zm0 0" data-original="#ffaa00"/><path fill="#2dc471" d="M12.309 278.824a7.392 7.392 0 0 1-5.3-12.54l9.186-9.468a7.392 7.392 0 1 1 10.61 10.297l-9.192 9.469a7.364 7.364 0 0 1-5.304 2.242zm0 0" data-original="#2dc471"/><path fill="#ffd02f" d="m216.293 278.492-23.996 12.996c-6.223 3.371-13.496-2.074-12.309-9.215l4.582-27.523c.473-2.836-.437-5.727-2.437-7.734l-19.414-19.496c-5.035-5.055-2.258-13.864 4.703-14.907l26.824-4.015c2.766-.414 5.152-2.2 6.387-4.782l12-25.043c3.113-6.492 12.101-6.492 15.215 0l11.996 25.043c1.238 2.582 3.625 4.368 6.386 4.782l26.829 4.015c6.957 1.043 9.734 9.852 4.699 14.907l-19.41 19.496c-2 2.007-2.914 4.898-2.442 7.734l4.582 27.523c1.192 7.141-6.082 12.586-12.304 9.215l-23.997-12.996a8.255 8.255 0 0 0-7.894 0zm0 0" data-original="#ffd02f"/><path fill="#5c73bc" d="M220.238 512a7.39 7.39 0 0 1-7.39-7.39V389.015c0-4.082 3.308-7.395 7.39-7.395s7.39 3.313 7.39 7.395v115.593a7.39 7.39 0 0 1-7.39 7.391zm.059-154.578h-.113a7.397 7.397 0 0 1-7.395-7.395 7.391 7.391 0 0 1 7.395-7.39h.113a7.394 7.394 0 0 1 0 14.785zm0 0" data-original="#5c73bc"/><path fill="#fa0" d="M220.297 331.996h-.149a7.39 7.39 0 0 1 .032-14.781h.148a7.39 7.39 0 0 1-.031 14.781zm0 0" data-original="#ffaa00"/><path fill="#ff4e61" d="M87.234 230.895a7.37 7.37 0 0 1-5.304-2.243L2.59 146.914c-2.844-2.93-2.778-7.61.152-10.45a7.395 7.395 0 0 1 10.453.153l79.344 81.738a7.387 7.387 0 0 1-.156 10.45 7.37 7.37 0 0 1-5.149 2.09zm0 0" data-original="#ff4e61"/><path fill="#fa0" d="M113.953 258.504c-1.863 0-3.726-.7-5.164-2.106a7.392 7.392 0 0 1-.125-10.453l.082-.082a7.392 7.392 0 0 1 10.453-.12 7.388 7.388 0 0 1 .121 10.452l-.078.082a7.38 7.38 0 0 1-5.289 2.227zm0 0" data-original="#ffaa00"/><path fill="#5c73bc" d="M131.402 276.48a7.37 7.37 0 0 1-5.148-2.09 7.39 7.39 0 0 1-.152-10.449l.078-.086a7.392 7.392 0 0 1 10.453-.152c2.93 2.844 3 7.524.156 10.453l-.082.082a7.37 7.37 0 0 1-5.305 2.242zm0 0" data-original="#5c73bc"/><path fill="#fa0" d="M353.242 227.988a7.35 7.35 0 0 1-5.144-2.086 7.392 7.392 0 0 1-.157-10.453l79.34-81.734a7.393 7.393 0 0 1 10.61 10.297l-79.344 81.734a7.37 7.37 0 0 1-5.305 2.242zm0 0" data-original="#ffaa00"/><path fill="#ff4e61" d="M326.523 255.602a7.358 7.358 0 0 1-5.27-2.211l-.081-.082a7.391 7.391 0 1 1 10.543-10.363l.082.081a7.39 7.39 0 0 1-.094 10.453 7.364 7.364 0 0 1-5.18 2.122zm0 0" data-original="#ff4e61"/><path fill="#fa0" d="M309.074 273.578a7.37 7.37 0 0 1-5.304-2.242l-.082-.082c-2.84-2.93-2.774-7.61.156-10.453s7.61-2.774 10.453.152l.082.082a7.396 7.396 0 0 1-5.305 12.543zm0 0" data-original="#ffaa00"/><path fill="#62d38f" d="M300.652 116.691c-1.242 0-2.5-.312-3.652-.972a7.39 7.39 0 0 1-2.758-10.082l56.863-99.653a7.391 7.391 0 0 1 10.082-2.754 7.39 7.39 0 0 1 2.758 10.082l-56.863 99.653a7.394 7.394 0 0 1-6.43 3.726zm0 0" data-original="#62d38f"/><path fill="#fa0" d="M281.523 150.328a7.363 7.363 0 0 1-3.789-1.047l-.097-.058a7.39 7.39 0 0 1-2.547-10.137 7.387 7.387 0 0 1 10.137-2.55l.097.058a7.392 7.392 0 0 1-3.8 13.734zm0 0" data-original="#ffaa00"/><path fill="#2dc471" d="M269.016 172.246a7.36 7.36 0 0 1-3.809-1.062l-.098-.059a7.397 7.397 0 0 1-2.515-10.148 7.396 7.396 0 0 1 10.148-2.512l.098.058a7.392 7.392 0 0 1-3.824 13.723zm0 0" data-original="#2dc471"/><path fill="#5c73bc" d="M139.965 116.691a7.39 7.39 0 0 1-6.43-3.73L76.672 13.313a7.392 7.392 0 0 1 12.84-7.328l56.863 99.648a7.396 7.396 0 0 1-6.41 11.058zm0 0" data-original="#5c73bc"/><path fill="#ff4e61" d="M159.094 150.328a7.394 7.394 0 0 1-6.344-3.582 7.396 7.396 0 0 1 2.527-10.144l.102-.059a7.388 7.388 0 0 1 10.14 2.527 7.39 7.39 0 0 1-2.527 10.145l-.097.058a7.365 7.365 0 0 1-3.801 1.055zm0 0" data-original="#ff4e61"/><path fill="#fa0" d="M171.602 172.246a7.38 7.38 0 0 1-6.329-3.562 7.392 7.392 0 0 1 2.489-10.153l.097-.058a7.394 7.394 0 1 1 7.664 12.645l-.097.058a7.354 7.354 0 0 1-3.824 1.07zm0 0" data-original="#ffaa00"/><path fill="#ffd02f" d="m402.145 357.281-15.524 11.602c-4.023 3.012-9.652-.043-9.523-5.164l.504-19.75c.05-2.035-.872-3.965-2.47-5.164l-15.507-11.621c-4.023-3.016-2.945-9.473 1.824-10.93l18.39-5.61c1.891-.578 3.391-2.082 4-4.015l5.938-18.785c1.54-4.875 7.836-5.813 10.653-1.59l10.863 16.285c1.121 1.676 2.969 2.68 4.941 2.68l19.18.011c4.977.004 7.79 5.883 4.758 9.95l-11.676 15.672a6.337 6.337 0 0 0-.95 5.671l5.919 18.797c1.531 4.875-3.028 9.446-7.715 7.735l-18.078-6.598a5.856 5.856 0 0 0-5.527.824zm0 0" data-original="#ffd02f"/><path fill="#ff4e61" d="M261.508 512a7.39 7.39 0 0 1-7.39-7.39c0-57.231 22.831-95.923 41.984-118.305 20.828-24.332 41.613-35.024 42.488-35.47a7.386 7.386 0 0 1 9.933 3.255 7.39 7.39 0 0 1-3.242 9.93c-.312.16-19.5 10.164-38.367 32.394-25.227 29.719-38.016 66.121-38.016 108.195a7.39 7.39 0 0 1-7.39 7.391zm0 0" data-original="#ff4e61"/><path fill="#ffd02f" d="m102.855 397.352 11.766 15.605c3.055 4.047 9.285 2.73 10.547-2.227l4.863-19.113c.5-1.965 1.91-3.554 3.77-4.246l18.039-6.707c4.68-1.738 5.39-8.25 1.207-11.016l-16.14-10.671c-1.66-1.102-2.692-2.973-2.759-5.004l-.617-19.75c-.156-5.121-5.949-7.832-9.797-4.586l-14.84 12.515a5.87 5.87 0 0 1-5.472 1.157L85 337.809c-4.777-1.426-9.07 3.41-7.262 8.183l6.969 18.41a6.34 6.34 0 0 1-.625 5.72l-10.77 16.347c-2.792 4.242.344 9.937 5.313 9.644l19.145-1.14c1.972-.118 3.875.773 5.085 2.379zm0 0" data-original="#ffd02f"/><path fill="#fa0" d="M179.023 512a7.39 7.39 0 0 1-7.39-7.39c0-30.06-6.68-57.56-19.852-81.735a7.393 7.393 0 0 1 12.984-7.074c14.364 26.375 21.65 56.254 21.65 88.808a7.39 7.39 0 0 1-7.392 7.391zm0 0" data-original="#ffaa00"/><path fill="#ffd02f" d="M268.926 55.898c0-11.285-8.883-20.433-19.836-20.433-10.957 0-19.836 9.148-19.836 20.433 0 11.286 8.879 20.438 19.836 20.438 10.953 0 19.836-9.152 19.836-20.438zm0 0" data-original="#ffd02f"/><path fill="#5c73bc" d="M373.078 446.813c0-11.286-8.879-20.434-19.832-20.434-10.957 0-19.836 9.148-19.836 20.434s8.88 20.433 19.836 20.433c10.953 0 19.832-9.148 19.832-20.434zm0 0" data-original="#5c73bc"/><path fill="#62d38f" d="M44.129 450.855c0-9.05-7.121-16.386-15.91-16.386-8.785 0-15.907 7.336-15.907 16.386 0 9.055 7.122 16.391 15.907 16.391 8.789 0 15.91-7.336 15.91-16.39zm0 0" data-original="#62d38f"/><path fill="#5c73bc" d="M88.172 288.352c0-9.051-7.121-16.387-15.91-16.387-8.785 0-15.907 7.336-15.907 16.387 0 9.05 7.122 16.39 15.907 16.39 8.789 0 15.91-7.34 15.91-16.39zm0 0" data-original="#5c73bc"/><path fill="#ff4e61" d="M210.84 16.39c0-9.054-7.121-16.39-15.906-16.39-8.79 0-15.91 7.336-15.91 16.39 0 9.051 7.12 16.387 15.91 16.387 8.785 0 15.906-7.336 15.906-16.386zm154.387 136.493c0-9.051-7.125-16.39-15.91-16.39s-15.91 7.339-15.91 16.39c0 9.05 7.124 16.387 15.91 16.387s15.91-7.336 15.91-16.387zM139.957 32.746a7.353 7.353 0 0 1-5.148-2.09 7.387 7.387 0 0 1-.157-10.449l9.192-9.469a7.387 7.387 0 0 1 10.449-.156c2.93 2.844 3 7.523.156 10.453l-9.187 9.469a7.377 7.377 0 0 1-5.305 2.242zm0 0" data-original="#ff4e61"/></svg>
