<svg height="512" viewBox="0 0 64 64" width="512" xmlns="http://www.w3.org/2000/svg"><path d="m3 57a4 4 0 0 1 4-4h48v-50h-46a6 6 0 0 0 -6 6z" fill="#2d75bb"/><path d="m15 9h34v18h-34z" fill="#fcec97"/><path d="m7 53h48a0 0 0 0 1 0 0v8a0 0 0 0 1 0 0h-48a4 4 0 0 1 -4-4 4 4 0 0 1 4-4z" fill="#fcec97"/><path d="m6 56h6v2h-6z" fill="#f1c056"/><path d="m20 56h35v2h-35z" fill="#f1c056"/><path d="m3 57a4 4 0 0 1 4-4h2v-50a6 6 0 0 0 -6 6z" fill="#f1c056"/><path d="m28.035 24.263 1.93-.526-3-11a1 1 0 0 0 -.965-.737h-4a1 1 0 0 0 -.965.737l-3 11 1.93.526 1.162-4.263h5.746zm-6.362-6.263 1.091-4h2.472l1.091 4z" fill="#f1c056"/><path d="m31 17h5v2h-5z" fill="#2d75bb"/><path d="m46 24h-8a1 1 0 0 1 -.819-1.573l5.899-8.427h-6.08v-2h8a1 1 0 0 1 .819 1.573l-5.899 8.427h6.08z" fill="#f1c056"/><path d="m20 31h24v4h-24z" fill="#f1c056"/><g fill="#f9bb4b"><path d="m17 39h4v2h-4z"/><path d="m23 39h18v2h-18z"/><path d="m43 39h4v2h-4z"/><path d="m15 43h34v2h-34z"/><path d="m15 47h34v2h-34z"/></g><path d="m55 8h6v4h-6z" fill="#e4544f"/><path d="m55 16h4v4h-4z" fill="#7fc99d"/><path d="m55 24h6v4h-6z" fill="#e4544f"/><path d="m55 32h4v4h-4z" fill="#7fc99d"/><path d="m20 59-4-2-4 2v-6h8z" fill="#e4544f"/></svg>