<svg id="Layer_1" enable-background="new 0 0 512 512" height="512" viewBox="0 0 512 512" width="512" xmlns="http://www.w3.org/2000/svg"><g><path d="m319.132 28.117-247.89 88.321c-32.406 41.541-51.72 93.794-51.72 150.562 0 93.287 52.142 174.39 128.868 215.773l45.05 18.74c21.188 6.414 43.588 10.033 66.775 10.433l115.597-26.625c79.367-40.54 133.71-123.083 133.71-218.321 0-116.538-81.369-214.064-190.39-238.883z" fill="#80b4fb"/><path d="m386.164 196.458-18.211 28.502c-2.337-1.825-4.735-3.586-7.207-5.263-11.971-8.123-25.032-14.102-38.737-17.854l18.796-29.418c16.199 5.561 31.524 13.641 45.359 24.033z" fill="#ffb332"/><g><path d="m150.416 236.706 31.913 13.221c-10.207 13.73-17.691 29.446-21.899 46.307l-31.407-13.012c4.726-16.757 11.993-32.41 21.393-46.516z" fill="#ff9100"/></g><path d="m205.743 374.372c-.337-17.342 13.497-31.725 30.839-32.062 17.341-.337 31.724 13.497 32.061 30.839l.043 2.232c.164 8.449-.525 16.917-2.013 25.244-2.404-2.818-14.225-15.6-30.582-15.282-18.425.358-29.236 17.007-29.236 17.007l-.582-.685z" fill="#ffb332"/><g><path d="m268.687 375.381-.043-2.232c-.337-17.342-14.72-31.176-32.061-30.839-6.196.12-11.94 2.041-16.754 5.243 11.639 4.434 20.033 15.592 20.29 28.79l.043 2.233c.045 2.319.02 4.639-.063 6.957 14.26 1.57 24.372 12.511 26.575 15.093 1.488-8.328 2.177-16.796 2.013-25.245z" fill="#ffa219"/></g><path d="m3.728 417.239c26.498-42.675 35.558-113.723 34.21-183.076-1.503-77.309 40.655-133.533 48.866-143.734.823-1.023 2.163-1.469 3.438-1.156l15.107 3.716c2.894.712 5.228-2.395 3.739-4.976l-7.966-13.809c-.687-1.19-.597-2.687.251-3.769 34.452-43.956 95.369-61.239 114.086-65.664 3.312-.783 6.736.706 8.43 3.657l10.707 18.655c2.314 4.031 8.372 3.125 9.405-1.406l4.491-19.687c.796-3.49 3.9-5.966 7.48-5.984 161.589-.823 228.252 91.618 247.342 125.737 3.295 5.888-.229 13.21-6.867 14.422-50.917 9.296-75.623 33.092-78.557 36.078-.476-1.037-1.173-1.966-2.08-2.721-37.047-30.838-84.049-47.304-132.346-46.365-45.872.892-90.442 17.643-125.501 47.164-34.732 29.246-58.742 69.748-67.608 114.046-.458 2.291.144 4.64 1.652 6.444 1.531 1.831 3.775 2.855 6.158 2.809l.984-.019c-.619 1.111-.951 1.724-.951 1.724 1.397 71.823-48.985 110.899-83.825 129.287-7.253 3.828-14.97-4.407-10.645-11.373z" fill="#ff4155"/><path d="m157.962 174.322c18.67-15.721 40.038-27.819 62.862-35.831.659-1.711.462-3.645-.561-5.193-48.333-73.17 14.327-106.212 14.333-106.215l-10.707-18.655c-1.694-2.952-5.118-4.44-8.43-3.657-18.717 4.425-79.633 21.708-114.086 65.664-.848 1.082-.937 2.579-.251 3.769l7.966 13.809c1.49 2.581-.845 5.688-3.739 4.976l-15.107-3.716c-1.275-.314-2.614.133-3.438 1.156-8.211 10.201-50.369 66.425-48.866 143.734 1.349 69.354-7.712 140.401-34.21 183.076-4.325 6.966 3.392 15.202 10.644 11.375 34.84-18.388 85.221-57.464 83.825-129.287 0 0 .331-.613.951-1.724l-.984.019c-2.383.046-4.627-.977-6.158-2.809-1.509-1.804-2.111-4.154-1.653-6.444 8.867-44.299 32.876-84.801 67.609-114.047z" fill="#e80054"/><path d="m283.43 125.453c49.71-.967 96.672 16.128 133.471 46.759 4.179 3.479 4.567 9.764.871 13.752l-14.162 15.28c-3.423 3.693-9.117 4.054-13.01.86-28.907-23.715-66.083-37.649-106.396-36.865-76.296 1.484-139.311 55.209-155.588 126.382-.965 4.217-4.726 7.205-9.051 7.289l-21.367.416c-6.04.117-10.701-5.37-9.516-11.294 18.373-91.804 98.527-160.708 194.748-162.579z" fill="#ffdd40"/><path d="m230.608 175.38c-.487-1.125-1.332-2.098-2.459-2.737-17.135-9.712-10.883-26.909-7.529-33.661.392-.789.576-1.641.581-2.493-67.054 23.151-118.297 80.481-132.519 151.543-1.186 5.924 3.476 11.411 9.516 11.293l21.367-.415c4.325-.084 8.086-3.072 9.051-7.289 12.257-53.594 51.017-97.29 101.992-116.241z" fill="#ffb332"/><path d="m268.894 241.071c-3.44 5.885-8.774 10.329-15.018 12.512-18.996 6.648-61.3 23.785-97.628 54.908 9.306-62.879 62.879-111.696 128.545-112.973 13.656-.266 26.861 1.564 39.33 5.158-17.148 3.992-39.959 14.275-55.229 40.395z" fill="#ffb332"/><path d="m251.832 254.309c.034-1.885-.89-3.713-2.505-4.85-19.016-13.389-14.399-32.617-11.095-41.063.46-1.176.489-2.417.155-3.558-43.244 17.201-75.157 56.467-82.14 103.654 35.081-30.054 75.728-47.064 95.585-54.183z" fill="#ffa219"/><path d="m156.95 351.856c-1.251-6.9-1.977-13.986-2.118-21.223-.164-8.426.472-16.681 1.819-24.7 36.373-30.631 78.202-47.499 96.662-53.959 5.967-2.088 10.919-6.308 14.109-11.765 14.741-25.215 36.201-35.968 53.238-40.5 41.113 10.641 74.613 40.558 90.057 79.702l-101.351 1.971c-33.349.648-66.421 9.491-95.642 25.571l-38.511 21.19c-9.282 5.108-15.785 13.746-18.263 23.713z" fill="#ffc839"/><path d="m264.522 285.452c-18.697-6.427-15.728-21.911-13.019-29.351.425-1.167.423-2.39.083-3.515-19.241 6.875-59.653 23.636-94.935 53.348-1.348 8.018-1.983 16.274-1.819 24.7.141 7.236.867 14.323 2.118 21.222 2.478-9.968 8.981-18.605 18.262-23.712l38.511-21.19c16.381-9.014 33.974-15.751 52.146-20.048-.851-.951-1.347-1.454-1.347-1.454z" fill="#ffb332"/><path d="m418.635 277.553-109.303 2.125c-33.758.656-66.85 9.504-96.431 25.781l-38.511 21.19c-12.737 7.009-20.538 20.502-20.255 35.038l1.593 81.932c.263 13.526-2.274 26.858-7.339 39.153 14.229 7.674 29.305 13.974 45.049 18.74 8.152-10.813 13.587-23.8 15.176-38.072.312-2.805.459-5.551.407-8.203l-1.573-80.898c-.32-16.428 12.739-30.004 29.166-30.323s30.004 12.739 30.323 29.166l.043 2.232c.386 19.838-3.853 39.492-12.379 57.408-8.739 18.362-10.034 39.392-3.614 58.687 2.392 7.189 5.502 14.022 9.225 20.436 1.435.025 2.868.055 4.308.055 40.072 0 77.895-9.623 111.289-26.68-.329-10.001-5.618-19.193-14.131-24.486l-19.032-11.833c-11.209-6.969-18.128-19.139-18.385-32.336l-.563-28.977c-.04-2.026 1.571-3.7 3.597-3.74l43.778-.851c7.954-.155 15.643 2.857 21.376 8.371l11.384 10.95c4.714 4.534 12.58 1.799 13.465-4.681l14.407-105.497c1.077-7.87-5.128-14.841-13.07-14.687z" fill="#ffdd40"/><path d="m299.071 375.812c0-55.358-34.366-90.175-34.541-90.352-17.957 4.33-35.328 11.03-51.629 19.999l-38.511 21.19c-12.737 7.009-20.538 20.502-20.255 35.037l1.594 81.932c.263 13.527-2.274 26.858-7.339 39.153 14.229 7.674 29.305 13.974 45.049 18.74 8.152-10.813 13.587-23.8 15.176-38.072.313-2.805.459-5.551.407-8.203l-1.573-80.898c-.32-16.427 12.739-30.004 29.166-30.323s30.004 12.739 30.323 29.167l.043 2.232c.385 19.838-3.852 39.492-12.379 57.408-8.739 18.362-10.034 39.392-3.614 58.687 2.392 7.189 5.502 14.022 9.225 20.436 1.435.025 2.868.054 4.308.054 20.549 0 40.501-2.547 59.574-7.313-49.412-19.123-25.024-73.384-25.024-128.874z" fill="#ffc839"/><g><path d="m249.181 355.117c-1.914-4.302.023-9.342 4.325-11.256 4.692-1.636 27.859-15.309 64.881-16.03l110.622-2.151c4.734-.119 8.6 3.653 8.691 8.361.092 4.708-3.651 8.599-8.359 8.691l-110.622 2.151c-32.807.637-53.859 13.009-58.281 14.559-4.294 1.91-9.338-.01-11.257-4.325z" fill="#ffc839"/></g><path d="m295.977 347.29c-12.111-6.569-4.807-16.366-4.725-16.475-21.156 4.312-34.335 11.856-37.745 13.045-4.302 1.914-6.24 6.954-4.325 11.256 1.919 4.315 6.963 6.235 11.257 4.326 3.293-1.155 15.815-8.309 35.542-12.15-.002 0-.003-.001-.004-.002z" fill="#ffb332"/></g></svg>