<svg xmlns="http://www.w3.org/2000/svg" viewBox="0 0 490.001 490.001" width="512" height="512"><circle cx="245.001" cy="245.001" r="245" fill="#683c8c"/><path d="M488.334 216.33c-2.01 17.34-5.84 34.13-11.29 50.17-7.54 22.2-18.18 42.97-31.41 61.8-44.31 63.11-117.65 104.36-200.63 104.36-82.97 0-156.31-41.25-200.63-104.35-13.23-18.83-23.87-39.6-31.41-61.81-5.45-16.04-9.28-32.83-11.29-50.17C15.864 94.53 119.394 0 245.004 0s229.14 94.53 243.33 216.33z" fill="#935aa8"/><path d="M85.724 138.15c-22.12-12.69-49.22-33.18-7.74-89.89 50.56 48.78 27.36 73.61 7.74 89.89z" fill="#ffe26b"/><path d="M98.734 371.09c-14.92 10.26-33.51 20.95-54.36 14.56-13.23-18.83-23.87-39.6-31.41-61.81 65.09-16.99 78.65 18.76 85.77 47.25zM4.478 214.764c68.401 16.045 61.173 49.243 52.647 73.273-25.494.414-59.264-3.327-52.647-73.273z" fill="#feb247"/><path d="M61.014 203.03c-24.47-4.81-56.01-15.28-35.4-80.83 62.15 29.3 48.46 59.58 35.4 80.83z" fill="#ffe26b"/><path d="M477.044 323.84c-7.54 22.2-18.18 42.97-31.41 61.8-20.85 6.41-39.44-4.29-54.37-14.55 7.12-28.5 20.68-64.24 85.78-47.25zM485.518 214.764c-68.401 16.045-61.173 49.243-52.647 73.273 25.494.414 59.263-3.327 52.647-73.273zM85.724 138.15c-22.12-12.69-49.22-33.18-7.74-89.89l7.74 89.89zM412.014 48.257c-50.559 48.785-27.361 73.609-7.741 89.893 22.116-12.69 49.216-33.183 7.741-89.893zM464.382 122.196c-62.153 29.308-48.463 59.588-35.404 80.834 24.471-4.808 56.009-15.279 35.404-80.834z" fill="#feb247"/><path d="M203.294 421.36l-3.69 15.68-.89 3.78c-43.38-10.21-82.71-35.09-110.74-70.05-28.47-35.5-44.15-80.17-44.15-125.77s15.68-90.26 44.15-125.76c28.03-34.97 67.36-59.85 110.74-70.06l.89 3.78 3.69 15.68c-39.05 9.2-74.47 31.61-99.72 63.11-26.01 32.43-39.75 71.59-39.75 113.25s13.74 80.83 39.75 113.26c25.25 31.49 60.67 53.9 99.72 63.1z" fill="#feb247"/><path d="M203.294 421.36l-3.69 15.68c-37.89-11.87-71.94-35.05-96.97-66.27-28.47-35.5-44.15-80.17-44.15-125.77s15.68-90.26 44.15-125.76c25.03-31.23 59.08-54.41 96.97-66.28l3.69 15.68c-39.05 9.2-74.47 31.61-99.72 63.11-26.01 32.43-39.75 71.59-39.75 113.25s13.74 80.83 39.75 113.26c25.25 31.49 60.67 53.9 99.72 63.1zM291.286 440.824l-4.584-19.468c39.054-9.197 74.471-31.606 99.728-63.1 26.007-32.429 39.754-71.593 39.754-113.256 0-41.659-13.747-80.822-39.754-113.253-25.258-31.497-60.675-53.907-99.728-63.104l4.584-19.468c43.378 10.215 82.709 35.096 110.747 70.059 28.472 35.504 44.151 80.168 44.151 125.765 0 45.601-15.68 90.266-44.151 125.769-28.037 34.961-67.368 59.841-110.747 70.056z" fill="#ffe26b"/><path d="M136.504 407.04c-25.49-19.86-55.85-50.41 6.3-114.18 54.75 70.23 21.22 97.24-6.3 114.18zM74.664 333.11c-20.22-22.36-43.18-55.31 24.19-103.89 38.99 73.35 3.83 92.77-24.19 103.89z" fill="#feb247"/><path d="M120.874 157.64c-1.06 74.17-36.93 74.23-63.64 70.88-6.2-26.2-9.99-61.87 63.64-70.88zM164.274 113.61c-33.99 43.58-55.32 27.48-69.68 13.47 8.1-18.34 21.9-41.23 69.68-13.47z" fill="#feb247"/><path d="M136.504 407.04l6.3-114.18c54.75 70.23 21.22 97.24-6.3 114.18zM74.664 333.11l24.19-103.89c38.99 73.35 3.83 92.77-24.19 103.89z" fill="#ffe26b"/><path d="M120.874 157.64c-1.06 74.17-36.93 74.23-63.64 70.88l63.64-70.88zM164.274 113.61c-33.99 43.58-55.32 27.48-69.68 13.47l69.68-13.47z" fill="#ffe26b"/><path d="M286.702 421.36l3.69 15.68c37.89-11.87 71.94-35.05 96.97-66.27 28.47-35.5 44.15-80.17 44.15-125.77s-15.68-90.26-44.15-125.76c-25.03-31.23-59.08-54.41-96.97-66.28l-3.69 15.68c39.05 9.2 74.47 31.61 99.72 63.11 26.01 32.43 39.75 71.59 39.75 113.25s-13.74 80.83-39.75 113.26c-25.25 31.49-60.67 53.9-99.72 63.1z" fill="#feb247"/><path d="M353.492 407.04c25.49-19.86 55.85-50.41-6.3-114.18-54.75 70.23-21.22 97.24 6.3 114.18zM415.332 333.11c20.22-22.36 43.18-55.31-24.19-103.89-38.99 73.35-3.83 92.77 24.19 103.89z" fill="#ffe26b"/><path d="M369.122 157.64c1.06 74.17 36.93 74.23 63.64 70.88 6.2-26.2 9.99-61.87-63.64-70.88zM325.722 113.61c33.99 43.58 55.32 27.48 69.68 13.47-8.1-18.34-21.9-41.23-69.68-13.47z" fill="#ffe26b"/><path d="M353.492 407.04l-6.3-114.18c-54.75 70.23-21.22 97.24 6.3 114.18zM415.332 333.11l-24.19-103.89c-38.99 73.35-3.83 92.77 24.19 103.89z" fill="#feb247"/><path d="M369.122 157.64c1.06 74.17 36.93 74.23 63.64 70.88l-63.64-70.88zM325.722 113.61c33.99 43.58 55.32 27.48 69.68 13.47l-69.68-13.47zM61.014 203.03c-24.47-4.81-56.01-15.28-35.4-80.83l35.4 80.83z" fill="#feb247"/><path d="M404.274 138.15c22.12-12.69 49.22-33.18 7.74-89.89l-7.74 89.89zM428.984 203.03c24.47-4.81 56.01-15.28 35.4-80.83l-35.4 80.83z" fill="#ffe26b"/><path d="M308.844 259.56c-.42 1.94-.46 3.97-.12 5.98l7.85 45.74c2.23 13.02-11.44 22.96-23.14 16.81l-41.08-21.6c-4.63-2.43-10.17-2.44-14.81-.01l-41.28 21.7c-5.75 2.94-11.95 2.02-16.5-1.22-4.67-3.33-7.58-9.12-6.46-15.68l7.85-45.74c.88-5.17-.83-10.45-4.59-14.12l-33.23-32.39c-4.67-4.55-5.77-10.77-4.1-16.13 1.71-5.51 6.32-10.11 12.94-11.07l45.92-6.67c5.19-.76 9.68-4.02 12.01-8.72l20.54-41.62c2.92-5.93 8.6-8.89 14.29-8.89s11.37 2.96 14.3 8.89l20.54 41.62c1.21 2.45 3.01 4.51 5.2 6.02 2 1.4 4.32 2.34 6.81 2.7l45.92 6.67c6.36.92 10.86 5.2 12.72 10.41 1.97 5.51.98 12.05-3.88 16.79l-33.23 32.39c-1.64 1.6-2.89 3.5-3.7 5.57-.33.83-.59 1.69-.77 2.57z" fill="#feb247"/><path d="M244.934 125.93v112.62l-105.7-35.65c1.71-5.51 6.32-10.11 12.94-11.07l45.92-6.67c5.19-.76 9.68-4.02 12.01-8.72l20.54-41.62c2.92-5.93 8.6-8.89 14.29-8.89z" fill="#ffe26b"/><path d="M244.934 238.55v64.04l-7.39 3.89-41.28 21.7c-5.75 2.94-11.95 2.02-16.5-1.22l65.17-88.41z" fill="#ffdd8d"/><path d="M346.544 219.03l-33.23 32.39c-1.64 1.6-2.89 3.5-3.7 5.57l-2.3.29-62.38-18.73 38.55-54.6 1.49-1.49c2 1.4 4.32 2.34 6.81 2.7l45.92 6.67c13.08 1.9 18.31 17.98 8.84 27.2z" fill="#ffdd8d"/><path d="M346.544 219.03l-33.23 32.39c-1.64 1.6-2.89 3.5-3.7 5.57-.33.83-.59 1.69-.77 2.57l-63.91-21.01 105.49-36.31c1.97 5.51.98 12.05-3.88 16.79z" fill="#ffe26b"/></svg>