<svg id="Capa_1" enable-background="new 0 0 512 512" height="512" viewBox="0 0 512 512" width="512" xmlns="http://www.w3.org/2000/svg"><g><path d="m480.439 256c0 66.64 6.091 127.33-35.629 172.88-46.81 51.09-114.07 83.12-188.81 83.12s-142-32.03-188.81-83.12c-12.52-13.67-23.57-28.7-32.91-44.84-21.8-37.66-34.28-81.4-34.28-128.04s12.48-90.38 34.28-128.04c9.34-16.14 20.39-31.17 32.91-44.84 46.81-51.09 114.07-83.12 188.81-83.12s142 32.03 188.81 83.12c41.72 45.55 35.629 106.24 35.629 172.88z" fill="#80b4fb"/><g><path d="m44.748 53.539h78.48v413.681h-78.48z" fill="#c6865c"/><path d="m44.748 53.539h78.48v37.245h-78.48z" fill="#c17d4f"/><path d="m44.748 53.539h31.765v413.681h-31.765z" fill="#c17d4f"/><path d="m0 472.969c0 16.51 13.384 29.894 29.894 29.894h108.188c16.51 0 29.894-13.384 29.894-29.894 0-16.51-13.384-29.894-29.894-29.894h-108.188c-16.51 0-29.894 13.384-29.894 29.894z" fill="#c6865c"/><path d="m99.196 443.078h-69.306c-16.502 0-29.89 13.377-29.89 29.89s13.388 29.89 29.89 29.89h69.305c-16.502 0-29.89-13.377-29.89-29.89 0-16.512 13.389-29.89 29.891-29.89z" fill="#c17d4f"/><path d="m0 39.031c0 16.51 13.384 29.894 29.894 29.894h108.188c16.51 0 29.894-13.384 29.894-29.894 0-16.51-13.384-29.894-29.894-29.894h-108.188c-16.51 0-29.894 13.384-29.894 29.894z" fill="#c6865c"/><path d="m99.196 9.141h-69.306c-16.502 0-29.89 13.377-29.89 29.89s13.388 29.89 29.89 29.89h69.305c-16.502 0-29.89-13.377-29.89-29.89s13.389-29.89 29.891-29.89z" fill="#c17d4f"/><path d="m512 256c0 49.27-13.92 95.29-38.05 134.34-2.66 4.31-5.45 8.54-8.36 12.68-6.37 9.07-13.32 17.71-20.78 25.86h-410.53v-345.76h410.53c41.72 45.55 67.19 106.24 67.19 172.88z" fill="#f9f6f9"/><path d="m34.28 83.115h36.912v345.77h-36.912z" fill="#dddaec"/></g><path d="m149.13 256.36-64.51 111.735h158.133l-64.51-111.735c-6.47-11.205-22.644-11.205-29.113 0z" fill="#ffc250"/><path d="m214.62 297.161-40.954 70.934h111.02l-40.954-70.934c-6.469-11.206-22.643-11.206-29.112 0z" fill="#f6e266"/><g fill="#6b61b1"><g><path d="m210.984 152.697h-118.627c-4.273 0-7.738 3.464-7.738 7.738 0 4.273 3.464 7.738 7.738 7.738h118.627c4.273 0 7.738-3.464 7.738-7.738 0-4.274-3.464-7.738-7.738-7.738z"/><path d="m210.984 123.927h-118.627c-4.273 0-7.738 3.464-7.738 7.738 0 4.273 3.464 7.738 7.738 7.738h118.627c4.273 0 7.738-3.464 7.738-7.738 0-4.274-3.464-7.738-7.738-7.738z"/><path d="m210.984 181.467h-118.627c-4.273 0-7.738 3.464-7.738 7.738 0 4.273 3.464 7.738 7.738 7.738h118.627c4.273 0 7.738-3.464 7.738-7.738 0-4.274-3.464-7.738-7.738-7.738z"/><path d="m210.984 210.236h-118.627c-4.273 0-7.738 3.464-7.738 7.738 0 4.273 3.464 7.738 7.738 7.738h118.627c4.273 0 7.738-3.464 7.738-7.738 0-4.273-3.464-7.738-7.738-7.738z"/></g><g><path d="m442.876 285.27h-118.627c-4.273 0-7.738 3.464-7.738 7.738 0 4.273 3.464 7.738 7.738 7.738h118.627c4.273 0 7.738-3.464 7.738-7.738 0-4.274-3.464-7.738-7.738-7.738z"/><path d="m442.876 256.5h-118.627c-4.273 0-7.738 3.464-7.738 7.738 0 4.273 3.464 7.738 7.738 7.738h118.627c4.273 0 7.738-3.464 7.738-7.738 0-4.274-3.464-7.738-7.738-7.738z"/><path d="m442.876 314.04h-118.627c-4.273 0-7.738 3.464-7.738 7.738 0 4.273 3.464 7.738 7.738 7.738h118.627c4.273 0 7.738-3.464 7.738-7.738 0-4.274-3.464-7.738-7.738-7.738z"/><path d="m442.876 342.809h-118.627c-4.273 0-7.738 3.464-7.738 7.738 0 4.273 3.464 7.738 7.738 7.738h118.627c4.273 0 7.738-3.464 7.738-7.738 0-4.273-3.464-7.738-7.738-7.738z"/></g><path d="m473.95 390.34c-2.66 4.31-5.45 8.54-8.36 12.68h-431.31v-12.68z"/><path d="m315.139 371.005c-3.796 0-6.873 3.077-6.873 6.872v20.174h13.745v-20.174c0-3.795-3.077-6.872-6.872-6.872z"/><path d="m71.414 371.005c-3.796 0-6.873 3.077-6.873 6.872v20.174h13.745v-20.174c.001-3.795-3.076-6.872-6.872-6.872z"/><path d="m120.159 381.336c-3.796 0-6.873 3.077-6.873 6.872v9.843h13.745v-9.843c.001-3.795-3.076-6.872-6.872-6.872z"/><path d="m168.904 381.336c-3.796 0-6.873 3.077-6.873 6.872v9.843h13.745v-9.843c0-3.795-3.076-6.872-6.872-6.872z"/><path d="m217.649 381.336c-3.796 0-6.873 3.077-6.873 6.872v9.843h13.745v-9.843c0-3.795-3.076-6.872-6.872-6.872z"/><path d="m266.394 381.336c-3.796 0-6.873 3.077-6.873 6.872v9.843h13.745v-9.843c0-3.795-3.076-6.872-6.872-6.872z"/><path d="m363.884 381.336c-3.796 0-6.872 3.077-6.872 6.872v9.843h13.745v-9.843c-.001-3.795-3.078-6.872-6.873-6.872z"/><path d="m412.629 381.336c-3.796 0-6.873 3.077-6.873 6.872v9.843h13.745v-9.843c0-3.795-3.077-6.872-6.872-6.872z"/><path d="m461.374 371.005c-3.796 0-6.873 3.077-6.873 6.872v20.174h13.745v-20.174c0-3.795-3.077-6.872-6.872-6.872z"/></g><path d="m439.096 132.362-51.616 51.604h-61.262c-1.335-18.498 5.076-37.457 19.224-51.604 25.865-25.866 67.788-25.866 93.654 0z" fill="#dd636e"/><path d="m428.252 174.976v16.841h-4.904c-8.069 0-14.619 6.55-14.619 14.619v12.938h-52.445v-44.398c0-19.88 16.116-35.984 35.984-35.984s35.984 16.104 35.984 35.984z" fill="#f6e266"/><path d="m403.251 140.692c-14.515 4.639-25.014 18.222-25.014 34.28v44.398h-21.952v-44.398c0-19.88 16.116-35.984 35.984-35.984 3.823.001 7.518.599 10.982 1.704z" fill="#ffc250"/><path d="m414.215 181.352h-12.249c-3.805 0-6.89-3.085-6.89-6.89 0-3.805 3.085-6.89 6.89-6.89h12.249c3.805 0 6.89 3.085 6.89 6.89 0 3.805-3.084 6.89-6.89 6.89z" fill="#6b61b1"/></g></svg>