<svg xmlns="http://www.w3.org/2000/svg" height="512pt" viewBox="0 0 512.00002 512" width="512pt"><path d="m512 256c0 38.753906-8.609375 75.492188-24.023438 108.417969-8.492187 18.136719-19.046874 35.117187-31.367187 50.625-46.894531 59.078125-119.324219 96.953125-200.609375 96.953125-81.28125 0-153.722656-37.886719-200.617188-96.964844-12.320312-15.515625-22.875-32.496094-31.367187-50.636719-15.402344-32.914062-24.01171875-69.652343-24.01171875-108.394531 0-141.386719 114.61328175-256 255.99609375-256 141.386719 0 256 114.613281 256 256zm0 0" fill="#1A2B63" style=""></path><path d="m55.382812 210.003906v205.027344c-12.320312-15.515625-22.875-32.496094-31.367187-50.636719v-158.152343zm0 0" fill="#31474c"></path><path d="m487.976562 206.25v158.167969c-8.492187 18.136719-19.046874 35.117187-31.367187 50.625v-205.039063zm0 0" fill="#31474c"></path><path d="m511.996094 36.453125v166.535156c-71.207032 10.136719-142.878906 16.019531-214.609375 17.660157-99.328125 2.257812-198.789063-3.625-297.386719-17.660157v-166.535156c24.242188 3.449219 48.535156 6.40625 72.859375 8.871094h.011719c146.105468 14.808593 293.550781 11.851562 439.125-8.871094zm0 0" fill="#ee6c4d" style=""></path><path d="m24.011719 206.238281 31.367187 3.761719v36.050781c-10.460937-1.160156-20.917968-2.414062-31.367187-3.761719zm0 0" fill="#18282d"></path><path d="m487.976562 206.25v36.039062c-10.449218 1.347657-20.910156 2.601563-31.371093 3.761719v-36.050781zm0 0" fill="#18282d"></path><path d="m297.386719 220.648438c-99.328125 2.257812-198.789063-3.625-297.386719-17.660157v-166.535156c24.242188 3.449219 48.535156 6.40625 72.859375 8.871094 0 0 65.046875 164.5 224.390625 175.3125.042969 0 .09375.011719.136719.011719zm0 0" fill="#d4674d" style="
"></path><g fill="#fff"><path d="m204.933594 95.613281c-16.519532-.683593-33.238282-1.714843-49.699219-3.0625-4.316406-.351562-8.097656 2.855469-8.449219 7.167969-.355468 4.316406 2.855469 8.097656 7.167969 8.453125 5.90625.480469 11.847656.910156 17.800781 1.3125v60.425781c0 4.328125 3.507813 7.835938 7.835938 7.835938s7.835937-3.507813 7.835937-7.835938v-59.464844c5.628907.308594 11.257813.59375 16.859375.828126.109375.003906.21875.003906.328125.003906 4.179688 0 7.648438-3.296875 7.824219-7.511719.179688-4.324219-3.179688-7.976563-7.503906-8.152344zm0 0"></path><path d="m430.503906 92.210938c-.582031-4.289063-4.53125-7.296876-8.820312-6.710938-16.390625 2.21875-33.054688 4.132812-49.523438 5.691406-4.308594.40625-7.472656 4.230469-7.066406 8.539063.382812 4.054687 3.796875 7.097656 7.792969 7.097656.246093 0 .496093-.011719.746093-.035156 5.441407-.515625 10.902344-1.082031 16.367188-1.671875v59.015625c0 4.328125 3.507812 7.835937 7.839844 7.835937 4.328125 0 7.835937-3.507812 7.835937-7.835937v-60.804688c6.054688-.730469 12.105469-1.488281 18.113281-2.300781 4.289063-.582031 7.292969-4.527344 6.714844-8.820312zm0 0"></path><path d="m339.582031 101.515625c-4.855469-4.605469-11.292969-6.953125-18.167969-6.578125-6.511718.34375-13.097656.640625-19.570312.882812-4.214844.152344-7.546875 3.613282-7.546875 7.828126v67.757812c0 4.328125 3.507813 7.835938 7.835937 7.835938 4.328126 0 7.835938-3.507813 7.835938-7.835938v-23.1875c5.742188.050781 11.03125 2.136719 15.003906 5.949219 4.117188 3.945312 6.386719 9.382812 6.386719 15.304687 0 4.328125 3.507813 7.839844 7.835937 7.839844 4.328126 0 7.835938-3.511719 7.835938-7.839844 0-10.230468-3.980469-19.683594-11.210938-26.617187-.011718-.011719-.023437-.023438-.035156-.035157 6.765625-4.808593 11.246094-12.722656 11.246094-21.4375v-2.320312c0-6.757812-2.648438-12.992188-7.449219-17.546875zm-29.613281 9.660156c4.089844-.175781 8.199219-.375 12.277344-.589843 2.503906-.136719 4.84375.683593 6.550781 2.300781 1.652344 1.566406 2.5625 3.761719 2.5625 6.175781v2.320312c0 5.4375-4.554687 10.277344-9.945313 10.558594-3.789062.203125-7.617187.386719-11.445312.554688zm0 0"></path><path d="m249.1875 96.648438c-6.992188-.007813-13.503906 2.628906-18.402344 7.496093-4.84375 4.820313-7.507812 11.246094-7.507812 18.101563v49.765625c0 4.328125 3.507812 7.835937 7.835937 7.835937s7.835938-3.507812 7.835938-7.835937v-23.398438c5.691406.078125 11.390625.128907 17.082031.128907 1.109375 0 2.210938-.011719 3.316406-.011719v23.480469c0 4.328124 3.507813 7.835937 7.835938 7.835937s7.835937-3.507813 7.835937-7.835937v-49.765626c0-14.140624-11.585937-25.714843-25.832031-25.796874zm-10.238281 36.300781v-10.703125c0-2.652344 1.027343-5.132813 2.890625-6.988282 1.917968-1.90625 4.480468-2.910156 7.265625-2.933593 5.644531.03125 10.242187 4.570312 10.242187 10.121093v10.617188c-6.789062.015625-13.605468-.019531-20.398437-.113281zm0 0"></path><path d="m99.3125 104.820312c1.484375-1.316406 3.570312-1.886718 5.871094-1.609374 6.332031.769531 12.761718 1.5 19.121094 2.175781 4.304687.453125 8.160156-2.664063 8.617187-6.96875.457031-4.304688-2.664063-8.164063-6.96875-8.617188-6.277344-.664062-12.628906-1.386719-18.878906-2.148437-6.820313-.828125-13.265625 1.105468-18.15625 5.4375-4.835938 4.289062-7.5 10.363281-7.5 17.113281 0 13.460937 10.441406 25.273437 23.769531 26.890625l2.105469.253906c5.421875.648438 10 5.71875 10 11.0625 0 2.273438-.832031 4.265625-2.347657 5.609375-1.496093 1.328125-3.550781 1.910157-5.785156 1.640625-6.257812-.75-12.601562-1.558594-18.855468-2.40625-4.292969-.578125-8.234376 2.425782-8.816407 6.714844s2.425781 8.238281 6.714844 8.816406c6.332031.859375 12.753906 1.679688 19.089844 2.4375 1.003906.121094 1.996093.179688 2.976562.179688 5.640625 0 10.910157-1.960938 15.078125-5.660156 4.84375-4.292969 7.621094-10.609376 7.621094-17.332032 0-13.328125-10.457031-25.023437-23.808594-26.625l-2.082031-.25c-5.320313-.648437-9.984375-5.941406-9.984375-11.332031-.003906-2.234375.765625-4.09375 2.21875-5.382813zm0 0"></path></g></svg>